<svg width="52" height="60" viewBox="0 0 52 60" fill="none" xmlns="http://www.w3.org/2000/svg">
<path d="M16.6987 26.4974C21.7709 26.5177 25.6334 29.982 26.0595 34.9249C26.0625 35.1499 26.1333 35.3688 26.2627 35.553C26.3922 35.7372 26.5741 35.878 26.7848 35.9571C28.5373 36.8625 28.2431 38.5414 28.2456 40.0833C28.2456 41.3311 27.6877 42.2086 26.5388 42.8046C25.3979 43.3616 24.5075 44.3263 24.0433 45.508C23.2115 47.6384 21.9764 49.4796 19.9855 50.6995C17.4824 52.2338 14.576 51.9396 12.3772 49.997C10.5816 48.4043 9.47336 46.3982 8.82665 44.1259C8.62884 43.4284 8.42848 43.01 7.54592 42.9491C6.13331 42.8527 5.22792 41.851 5.16198 40.4358C5.07829 38.6453 4.74098 36.7103 6.93725 35.7415C7.30753 35.5767 7.22383 35.1633 7.25934 34.8361C7.79699 29.8603 11.6316 26.4796 16.6987 26.4974ZM22.7854 45.541C21.8166 45.7946 21.0101 46.0964 20.2011 46.17C18.7834 46.2968 17.457 47.0196 15.9912 46.7888C15.2303 46.6696 14.6749 46.2689 14.7231 45.4827C14.7713 44.6965 15.2836 44.2806 16.085 44.2882C16.7164 44.2562 17.3495 44.2791 17.9769 44.3567C20.0844 44.7548 21.8445 43.923 23.5361 42.8578C24.0661 42.5256 24.0687 41.9118 24.0433 41.3666C24.0078 40.6894 23.5919 41.184 23.3256 41.1662C22.8184 41.1333 23.0441 40.7199 23.072 40.4891C23.1926 39.3532 23.155 38.2061 22.9604 37.0806C22.7068 35.8125 22.2173 35.5285 21.0431 35.9976C18.2861 37.1415 15.1906 37.1597 12.4203 36.0484C11.0838 35.5411 10.6197 35.7948 10.3788 37.2124C10.2232 38.3004 10.1994 39.4031 10.3077 40.4967C10.3255 40.7148 10.6146 41.3209 9.9324 41.1104C8.93317 40.801 9.31359 41.572 9.36431 41.8713C9.56388 43.206 9.96582 44.5025 10.5563 45.716C11.4896 47.5775 12.7196 49.1448 14.713 49.9462C17.7664 51.1864 21.2333 49.33 22.7803 45.541H22.7854ZM9.42518 34.1285C11.2461 31.6203 13.5235 30.1189 16.5897 30.0708C19.6558 30.0226 21.9383 31.5011 23.8404 33.9662C23.2875 30.7555 20.1301 28.3361 16.6835 28.3259C13.138 28.3158 10.0034 30.7707 9.4201 34.126L9.42518 34.1285Z" fill="#7B46BE"/>
<path d="M16.6758 59.5022C11.4413 59.5022 6.20678 59.4819 0.972249 59.52C0.00852806 59.52 -0.184216 59.307 0.155622 58.3889C1.61896 54.4478 4.36556 51.9649 8.42841 50.9327C9.16641 50.7425 9.83087 50.6157 10.1682 51.6936C10.4218 52.5381 11.2663 53.0656 12.0956 53.4308C13.5328 54.1005 15.0991 54.4475 16.6847 54.4475C18.2703 54.4475 19.8366 54.1005 21.2738 53.4308C22.1006 53.0656 22.9197 52.5432 23.1987 51.691C23.5132 50.7248 24.0787 50.7248 24.8167 50.9074C28.9836 51.937 31.8037 54.4579 33.2341 58.5157C33.5232 59.3348 33.3406 59.5149 32.5062 59.5124C27.2286 59.487 21.9535 59.5022 16.6758 59.5022Z" fill="#7B46BE"/>
<path d="M26.6301 49.4693C26.4619 49.4693 26.3007 49.4025 26.1818 49.2836C26.0628 49.1647 25.996 49.0034 25.996 48.8353C25.996 48.6671 26.0628 48.5059 26.1818 48.387C26.3007 48.2681 26.4619 48.2013 26.6301 48.2013C31.266 48.1992 35.7972 46.8227 39.6508 44.2456C43.5044 41.6685 46.5074 38.0066 48.28 33.723C50.0526 29.4393 50.5152 24.7263 49.6093 20.1797C48.7035 15.6332 46.4699 11.4573 43.1909 8.18007C39.9119 4.90287 35.7349 2.67152 31.1878 1.76814C26.6408 0.864763 21.9279 1.32993 17.6453 3.10483C13.3626 4.87973 9.70232 7.88465 7.12732 11.7397C4.55231 15.5947 3.17819 20.1266 3.17869 24.7626C3.18035 25.9118 3.26511 27.0594 3.4323 28.1964C3.45685 28.3629 3.41427 28.5323 3.31391 28.6674C3.21356 28.8025 3.06366 28.8921 2.89718 28.9167C2.73071 28.9412 2.5613 28.8987 2.42623 28.7983C2.29116 28.698 2.20148 28.548 2.17693 28.3816C2.00592 27.1829 1.92116 25.9734 1.92332 24.7626C1.9178 19.8681 3.36448 15.0821 6.08023 11.0102C8.79599 6.93836 12.6587 3.76373 17.1795 1.88816C21.7003 0.0125988 26.676 -0.479581 31.4766 0.473922C36.2773 1.42742 40.6871 3.78374 44.148 7.24462C47.6089 10.7055 49.9652 15.1154 50.9187 19.916C51.8722 24.7167 51.38 29.6923 49.5045 34.2131C47.6289 38.7339 44.4543 42.5966 40.3824 45.3124C36.3105 48.0282 31.5245 49.4748 26.6301 49.4693Z" fill="#7B46BE"/>
<path d="M15.4712 14.8944H18.9938C19.249 14.8751 19.5043 14.9297 19.7293 15.0517C19.8073 15.1132 19.8688 15.1931 19.9082 15.2844C19.9476 15.3756 19.9637 15.4751 19.955 15.5741C19.9256 15.7913 19.833 15.995 19.6887 16.16C19.5112 16.4136 19.3083 16.6672 19.0826 16.9639C18.8208 17.3107 18.586 17.6769 18.3801 18.0595C18.1083 18.5694 17.8866 19.1045 17.7182 19.6572C17.6345 19.9362 17.5736 20.1645 17.5381 20.3496C17.5026 20.5347 17.4646 20.7706 17.4214 21.0623C17.3783 21.3539 17.3428 21.5695 17.3124 21.7318C17.2746 22.0045 17.1642 22.262 16.9928 22.4774C16.9223 22.5478 16.8377 22.6027 16.7447 22.6385C16.6517 22.6743 16.5522 22.6903 16.4526 22.6854C16.3569 22.6879 16.2617 22.6692 16.174 22.6306C16.0863 22.592 16.0083 22.5345 15.9454 22.4622C15.8028 22.2722 15.7334 22.0372 15.7501 21.8003C15.7629 21.4899 15.8106 21.1819 15.8922 20.8822C16.0168 20.4094 16.1719 19.9452 16.3563 19.4924C16.5866 18.9208 16.8561 18.3658 17.1628 17.8313C17.5004 17.2369 17.8837 16.6697 18.3091 16.1346H15.4712C15.2389 16.1517 15.0072 16.0949 14.8092 15.9723C14.7333 15.9128 14.6735 15.8352 14.6354 15.7465C14.5973 15.6579 14.5821 15.5611 14.5911 15.4651C14.5775 15.3723 14.5922 15.2776 14.6334 15.1934C14.6746 15.1092 14.7403 15.0395 14.8219 14.9933C15.0295 14.917 15.2503 14.8833 15.4712 14.8944Z" fill="#7B46BE"/>
<path d="M23.0034 15.7595L21.5274 21.8461C21.4792 22.0465 21.4361 22.2037 21.398 22.3204C21.3677 22.4248 21.3089 22.5188 21.2281 22.5917C21.1338 22.6633 21.0164 22.6976 20.8984 22.6881C20.5408 22.6881 20.3608 22.5334 20.3608 22.224C20.3807 22.017 20.4163 21.8119 20.4673 21.6103L21.9382 15.5236C21.984 15.2927 22.059 15.0686 22.1614 14.8566C22.2073 14.7925 22.2698 14.742 22.3422 14.7107C22.4146 14.6795 22.4941 14.6685 22.5723 14.6791C22.7179 14.6684 22.8622 14.7138 22.9755 14.8059C23.0228 14.85 23.0598 14.904 23.0839 14.9641C23.108 15.0241 23.1186 15.0887 23.115 15.1533C23.1003 15.3589 23.0629 15.5622 23.0034 15.7595Z" fill="#7B46BE"/>
<path d="M25.6639 21.3082H28.4181C28.6399 21.2947 28.8599 21.3544 29.0445 21.4782C29.1151 21.5315 29.1718 21.6011 29.2097 21.681C29.2477 21.7609 29.2658 21.8488 29.2626 21.9372C29.2642 22.0988 29.2023 22.2545 29.0902 22.3709C29.0219 22.433 28.9418 22.4808 28.8546 22.5113C28.7675 22.5418 28.6751 22.5544 28.5829 22.5484H24.6875C24.5753 22.5555 24.4629 22.5399 24.357 22.5024C24.2511 22.4649 24.1539 22.4064 24.0712 22.3303C24.0011 22.2657 23.9451 22.1873 23.9067 22.1C23.8682 22.0127 23.8483 21.9184 23.848 21.8231C23.8606 21.6461 23.9089 21.4736 23.99 21.3158C24.0671 21.1355 24.1724 20.9686 24.302 20.8213C24.772 20.3361 25.1947 19.9201 25.57 19.5735C25.824 19.3299 26.0934 19.1029 26.3765 18.8939C26.6359 18.7122 26.8772 18.5058 27.0968 18.2776C27.2746 18.0914 27.4218 17.8783 27.533 17.6461C27.63 17.4477 27.6819 17.2303 27.6852 17.0095C27.6879 16.7972 27.6317 16.5883 27.5228 16.4059C27.4182 16.2297 27.2662 16.0865 27.0841 15.9926C26.8987 15.8927 26.6911 15.8413 26.4805 15.8429C26.2618 15.839 26.0461 15.8932 25.8553 16.0002C25.6646 16.1072 25.5057 16.263 25.395 16.4516C25.3228 16.5895 25.2633 16.7339 25.2175 16.8827C25.1557 17.078 25.0614 17.2615 24.9385 17.4255C24.8823 17.4903 24.8118 17.5412 24.7326 17.5742C24.6534 17.6072 24.5677 17.6214 24.482 17.6157C24.4011 17.6178 24.3205 17.6037 24.2451 17.574C24.1698 17.5444 24.1011 17.4999 24.0433 17.4432C23.9838 17.3795 23.9378 17.3044 23.9082 17.2225C23.8786 17.1405 23.8658 17.0534 23.8708 16.9664C23.8742 16.7046 23.9294 16.446 24.0332 16.2056C24.1462 15.9364 24.3117 15.6924 24.5201 15.4879C24.758 15.2651 25.0383 15.0926 25.3443 14.9806C25.7181 14.8416 26.1148 14.7745 26.5135 14.7828C26.9863 14.7623 27.4582 14.8418 27.8982 15.0162C28.1428 15.127 28.3633 15.2847 28.5474 15.4803C28.7334 15.6785 28.8805 15.9099 28.9811 16.1625C29.085 16.4186 29.1384 16.6925 29.1383 16.969C29.1425 17.3879 29.0301 17.7997 28.8137 18.1584C28.6337 18.4672 28.4108 18.749 28.1518 18.9953C27.9252 19.1982 27.5474 19.5161 27.0182 19.9489C26.6262 20.2542 26.2621 20.5937 25.9302 20.9633C25.8344 21.0727 25.7454 21.1879 25.6639 21.3082Z" fill="#7B46BE"/>
<path d="M33.4547 21.8839V20.9024H30.807C30.5341 20.9252 30.2626 20.8446 30.0462 20.6767C29.9614 20.5982 29.8948 20.5022 29.851 20.3953C29.8072 20.2884 29.7873 20.1733 29.7926 20.0579C29.7935 19.9888 29.8054 19.9203 29.8281 19.855C29.8577 19.7795 29.8951 19.7073 29.9397 19.6395C29.9879 19.5634 30.0411 19.4898 30.0918 19.4213L30.2871 19.1677L33.0768 15.427C33.2114 15.2358 33.3625 15.0567 33.5283 14.8919C33.5843 14.8373 33.6506 14.7945 33.7233 14.7657C33.796 14.737 33.8736 14.723 33.9518 14.7245C34.4878 14.7245 34.7549 15.0305 34.7532 15.6425V19.7257H34.9815C35.2041 19.7174 35.426 19.7554 35.6332 19.8373C35.7203 19.882 35.7915 19.9525 35.8369 20.0392C35.8823 20.126 35.8997 20.2246 35.8868 20.3217C35.8938 20.4069 35.8791 20.4926 35.844 20.5706C35.809 20.6486 35.7548 20.7165 35.6865 20.768C35.5048 20.8741 35.2953 20.9227 35.0854 20.9075H34.7634V21.889C34.7811 22.1052 34.7178 22.3203 34.5858 22.4926C34.5247 22.5586 34.4499 22.6105 34.3667 22.6446C34.2835 22.6788 34.1938 22.6944 34.104 22.6904C34.0144 22.6939 33.9252 22.6775 33.8428 22.6425C33.7604 22.6074 33.6867 22.5545 33.6272 22.4875C33.4963 22.3149 33.4348 22.0996 33.4547 21.8839ZM31.195 19.7206H33.4623V16.657L31.195 19.7206Z" fill="#7B46BE"/>
<path d="M38.2454 15.5642V17.7022C38.4023 17.5118 38.582 17.3414 38.7805 17.195C38.9563 17.0708 39.1518 16.9773 39.3588 16.9185C39.5804 16.854 39.8102 16.8224 40.041 16.8247C40.3794 16.8184 40.7137 16.8987 41.0123 17.058C41.2417 17.1897 41.4392 17.3706 41.5904 17.5877C41.7417 17.8047 41.8431 18.0525 41.8873 18.3134C41.9228 18.5569 41.9398 18.8028 41.938 19.0488V21.8107C41.9554 22.0458 41.8849 22.2789 41.7402 22.465C41.6743 22.5381 41.5931 22.5958 41.5023 22.6339C41.4116 22.672 41.3135 22.6897 41.2152 22.6856C40.7401 22.6856 40.5034 22.394 40.5051 21.8107V19.3785C40.5255 19.0125 40.4541 18.6472 40.2971 18.3159C40.216 18.1864 40.0998 18.0826 39.9619 18.0166C39.8241 17.9506 39.6703 17.9251 39.5186 17.9431C39.2692 17.9402 39.0256 18.0175 38.8237 18.1637C38.6142 18.3134 38.4536 18.5216 38.3621 18.7623C38.2663 19.1356 38.227 19.5211 38.2454 19.9061V21.8107C38.2618 22.0441 38.1933 22.2755 38.0527 22.4624C37.9861 22.5377 37.9034 22.5968 37.8107 22.6355C37.7181 22.6741 37.6178 22.6913 37.5176 22.6856C37.0425 22.6856 36.8049 22.394 36.8049 21.8107V15.5642C36.7879 15.33 36.8544 15.0973 36.9926 14.9074C37.0582 14.834 37.1394 14.7763 37.2303 14.7386C37.3211 14.7008 37.4193 14.684 37.5176 14.6893C37.6176 14.6837 37.7176 14.7006 37.8102 14.7388C37.9028 14.777 37.9857 14.8355 38.0527 14.9099C38.1945 15.0972 38.2631 15.3299 38.2454 15.5642Z" fill="#7B46BE"/>
</svg>
