<svg width="24" height="24" viewBox="0 0 24 24" fill="none" xmlns="http://www.w3.org/2000/svg">
<path d="M23.7136 7.75741C24.1522 5.89302 24.0864 4.20429 23.5284 3.00219C23.0998 2.07883 22.4089 1.52012 21.5666 1.40749C20.7405 -0.145865 18.895 -0.151537 17.1662 0.164937C16.6787 0.253993 16.813 0.992354 17.3012 0.902596C21.1296 0.201919 20.649 2.11347 21.3083 2.13746C22.1422 2.16774 22.606 2.79614 22.8482 3.31796C23.3287 4.35316 23.3781 5.90867 22.9836 7.58567C22.5341 9.4968 21.5482 11.4849 20.1265 13.3513C19.4805 13.067 18.9752 12.6721 18.5871 12.1494C18.2918 11.7514 17.6891 12.1978 17.985 12.5965C18.4559 13.2308 19.0909 13.7214 19.8739 14.0582C19.8981 15.7608 19.8177 15.7977 19.9489 15.9727C23.761 21.0554 21.7565 23.997 22.8738 23.997C22.9732 23.997 23.0686 23.9575 23.1389 23.8872C23.2092 23.8169 23.2487 23.7215 23.2487 23.622C23.2487 20.8754 22.8071 18.5724 20.6239 15.6233V13.9341C22.1621 11.9477 23.2297 9.81454 23.7136 7.75741V7.75741Z" fill="#7B46BE"/>
<path d="M17.6242 10.431C17.1284 10.431 17.1278 11.1809 17.6242 11.1809C20.0974 11.1809 20.0012 7.09924 18.1084 7.09924C16.8839 7.09924 16.4983 8.93111 17.2492 8.93111C17.3487 8.93111 17.444 8.8916 17.5144 8.82128C17.5847 8.75096 17.6242 8.65559 17.6242 8.55614C17.6242 7.52816 18.7491 7.59036 18.7491 8.93111C18.7491 9.3821 18.6395 10.431 17.6242 10.431Z" fill="#7B46BE"/>
<path d="M18.3741 17.9976C17.6782 17.9983 17.011 18.2751 16.5189 18.7672C16.0268 19.2593 15.75 19.9264 15.7493 20.6223V23.6221C15.7493 24.1178 16.4992 24.1186 16.4992 23.6221V20.6223C16.4992 20.1251 16.6967 19.6482 17.0483 19.2966C17.3999 18.945 17.8768 18.7475 18.3741 18.7475C18.8713 18.7475 19.3482 18.945 19.6998 19.2966C20.0514 19.6482 20.2489 20.1251 20.2489 20.6223V23.6221C20.2489 24.1178 20.9988 24.1186 20.9988 23.6221V20.6223C20.9981 19.9264 20.7213 19.2593 20.2292 18.7672C19.7371 18.2751 19.0699 17.9983 18.3741 17.9976V17.9976Z" fill="#7B46BE"/>
<path d="M18.6037 16.113C17.5591 16.5526 16.0896 17.0637 14.641 17.2078C15.6229 15.8012 15.3309 16.8941 15.3743 14.2479C15.3743 14.1484 15.3348 14.053 15.2645 13.9827C15.1941 13.9124 15.0988 13.8729 14.9993 13.8729H12.1871C11.9385 13.8726 11.7003 13.7737 11.5245 13.598C11.3488 13.4223 11.2499 13.184 11.2496 12.9355V11.2481C11.2496 10.9024 10.9016 10.8772 10.2089 10.3981C11.1471 9.1508 11.2496 9.156 11.2496 8.93102V6.87197C11.4716 6.95621 11.7011 7.01899 11.935 7.05945C12.424 7.1449 12.5526 6.40612 12.0642 6.32077C10.2012 5.99506 9.50387 4.16155 9.39035 2.27353C10.4485 2.82361 11.9984 2.35148 14.4492 1.6314C14.9249 1.49182 14.7146 0.772391 14.2382 0.911739C12.1705 1.51905 9.91802 2.2718 9.34371 1.26219C9.18632 0.923456 8.66361 1.00778 8.63521 1.40515C8.51268 3.10934 9.01674 5.42023 10.4997 6.47193V8.80264L9.36002 10.2681C9.32768 10.3097 9.30446 10.3577 9.29189 10.4088C9.27933 10.46 9.27768 10.5132 9.28707 10.5651C9.29646 10.6169 9.31667 10.6662 9.34639 10.7097C9.3761 10.7533 9.41465 10.79 9.45953 10.8176L10.4997 11.4576V12.9355C10.5002 13.3828 10.6781 13.8117 10.9945 14.1281C11.3108 14.4444 11.7397 14.6223 12.1871 14.6228H14.6244V15.9845C14.2783 16.4064 13.9585 16.8492 13.6668 17.3104C13.6224 17.34 13.5848 17.3787 13.5566 17.424C13.5284 17.4692 13.5102 17.52 13.5032 17.5729C12.4024 19.3773 11.6246 21.5002 11.6246 23.6221C11.6246 23.7215 11.6641 23.8169 11.7344 23.8872C11.8047 23.9575 11.9001 23.9971 11.9996 23.9971C12.099 23.9971 12.1944 23.9575 12.2647 23.8872C12.335 23.8169 12.3745 23.7215 12.3745 23.6221C12.3745 21.372 13.3182 19.3318 14.1299 17.9929C15.8592 17.9363 17.6617 17.323 18.8945 16.8043C19.352 16.6117 19.0606 15.9206 18.6037 16.113V16.113Z" fill="#7B46BE"/>
<path d="M13.9225 5.06495C13.7267 5.41382 12.7496 7.18869 12.7496 7.87333C12.7496 8.27113 12.9077 8.65263 13.1889 8.93391C13.4702 9.21519 13.8517 9.37321 14.2495 9.37321C14.6473 9.37321 15.0288 9.21519 15.3101 8.93391C15.5914 8.65263 15.7494 8.27113 15.7494 7.87333C15.7494 7.18869 14.7723 5.41382 14.5765 5.06495C14.5439 5.00689 14.4964 4.95855 14.439 4.92491C14.3815 4.89127 14.3161 4.87354 14.2495 4.87354C14.1829 4.87354 14.1175 4.89127 14.0601 4.92491C14.0026 4.95855 13.9551 5.00689 13.9225 5.06495ZM14.2495 8.62327C14.0507 8.62304 13.8601 8.54395 13.7195 8.40336C13.5789 8.26277 13.4998 8.07216 13.4996 7.87333C13.4996 7.61845 13.848 6.81953 14.2495 6.04039C14.651 6.8193 14.9994 7.61821 14.9994 7.87333C14.9992 8.07216 14.9201 8.26277 14.7795 8.40336C14.6389 8.54395 14.4483 8.62304 14.2495 8.62327V8.62327Z" fill="#7B46BE"/>
<path d="M6.75004 13.6908V3.37369C6.7497 3.07545 6.63108 2.78952 6.42019 2.57863C6.2093 2.36774 5.92337 2.24911 5.62513 2.24878H2.62537C2.32713 2.24911 2.0412 2.36774 1.83031 2.57863C1.61943 2.78952 1.5008 3.07545 1.50047 3.37369V13.6911C-1.47641 16.1525 0.276379 20.9972 4.12628 20.9972C7.93982 20.9972 9.75368 16.1641 6.75004 13.6908ZM4.04374 20.2464C0.909562 20.1726 -0.488417 16.1174 2.10065 14.1728C2.38493 13.9592 2.19608 13.9672 2.25064 7.49835H3.37531C3.87112 7.49835 3.87173 6.74841 3.37531 6.74841H2.25041V5.99847H4.12525C4.62106 5.99847 4.62166 5.24853 4.12525 5.24853H2.25041V4.4986H3.37531C3.87112 4.4986 3.87173 3.74866 3.37531 3.74866H2.25041C2.27314 3.64723 2.12385 2.99872 2.62537 2.99872H5.62513C5.72454 2.99883 5.81985 3.03837 5.89015 3.10867C5.96045 3.17896 5.99999 3.27427 6.0001 3.37369C6.05634 14.273 5.86469 13.9584 6.14985 14.1728C8.79681 16.1609 7.27617 20.3239 4.04374 20.2464Z" fill="#7B46BE"/>
<path d="M5.25007 14.5017V8.62326C5.25007 8.52381 5.21057 8.42844 5.14025 8.35812C5.06993 8.2878 4.97455 8.24829 4.8751 8.24829H3.37522C3.27578 8.24829 3.1804 8.2878 3.11008 8.35812C3.03976 8.42844 3.00026 8.52381 3.00026 8.62326V14.5017C0.471556 15.7039 1.35119 19.4974 4.12516 19.4974C6.89525 19.4974 7.78186 15.7055 5.25007 14.5017ZM4.12516 18.7474C2.03171 18.7474 1.51913 15.808 3.50056 15.1052C3.97414 14.9372 3.65725 14.6234 3.75019 8.99823H4.50013C4.59519 14.753 4.2917 14.9427 4.74977 15.1052C6.7304 15.8076 6.21932 18.7474 4.12516 18.7474Z" fill="#7B46BE"/>
<path d="M0.37561 20.9972C0.37561 21.493 1.12555 21.4937 1.12555 20.9972C1.12555 20.5008 0.37561 20.5008 0.37561 20.9972Z" fill="#7B46BE"/>
<path d="M2.25038 21.3722C1.75462 21.3722 1.75392 22.1221 2.25038 22.1221C2.74613 22.1221 2.74684 21.3722 2.25038 21.3722Z" fill="#7B46BE"/>
<path d="M5.62512 21.7471C5.62512 22.2429 6.37506 22.2436 6.37506 21.7471C6.37506 21.2506 5.62512 21.2506 5.62512 21.7471Z" fill="#7B46BE"/>
<path d="M3.75024 22.1221C3.75024 22.6179 4.50018 22.6186 4.50018 22.1221C4.50018 21.6256 3.75024 21.6256 3.75024 22.1221Z" fill="#7B46BE"/>
<path d="M7.49989 20.6223C7.00413 20.6223 7.00343 21.3723 7.49989 21.3723C7.99564 21.3723 7.99635 20.6223 7.49989 20.6223Z" fill="#7B46BE"/>
<path d="M15.7493 1.12396C16.2451 1.12396 16.2458 0.374023 15.7493 0.374023C15.2528 0.374023 15.2528 1.12396 15.7493 1.12396Z" fill="#7B46BE"/>
</svg>
