<svg width="20" height="18" viewBox="0 0 20 18" fill="none" xmlns="http://www.w3.org/2000/svg">
<path d="M1.66667 0.5H8.33333C8.5452 0.5 8.73406 0.552346 8.90996 0.657584C9.09176 0.766356 9.23425 0.910344 9.34247 1.09578C9.44733 1.27545 9.5 1.46945 9.5 1.6875V16.3125C9.5 16.6521 9.38811 16.9236 9.15815 17.1565C8.92842 17.3891 8.66319 17.5 8.33333 17.5H1.66667C1.33681 17.5 1.07158 17.3891 0.841854 17.1565C0.611893 16.9236 0.5 16.6521 0.5 16.3125V1.6875C0.5 1.46945 0.552668 1.27545 0.657531 1.09578C0.765752 0.910344 0.908241 0.766356 1.09004 0.657584C1.26594 0.552346 1.4548 0.5 1.66667 0.5ZM9.0797 17.0594C9.27928 16.8573 9.38889 16.6003 9.38889 16.3125V1.6875C9.38889 1.39969 9.27928 1.14272 9.0797 0.940642C8.88 0.738446 8.62333 0.625 8.33333 0.625H1.66667C1.37667 0.625 1.12 0.738446 0.920299 0.940642C0.720716 1.14272 0.611111 1.39969 0.611111 1.6875V16.3125C0.611111 16.6003 0.720716 16.8573 0.920299 17.0594C1.12 17.2616 1.37667 17.375 1.66667 17.375H8.33333C8.62333 17.375 8.88 17.2616 9.0797 17.0594ZM4.57449 14.7478C4.7026 14.6181 4.83867 14.5625 5.00868 14.5625C5.1783 14.5625 5.30892 14.6176 5.42954 14.7431C5.55547 14.874 5.61111 15.014 5.61111 15.1875C5.61111 15.3002 5.58434 15.4038 5.52723 15.5058C5.47275 15.6032 5.40132 15.6751 5.30673 15.7294C5.20748 15.7863 5.10788 15.8125 5 15.8125C4.89212 15.8125 4.79252 15.7863 4.69327 15.7294C4.59868 15.6751 4.52726 15.6032 4.47277 15.5058C4.41566 15.4038 4.38889 15.3002 4.38889 15.1875C4.38889 15.0183 4.44421 14.8797 4.57449 14.7478ZM3.88889 2.1875H6.11111C6.11775 2.1875 6.12145 2.1881 6.12289 2.18838C6.12426 2.18866 6.12478 2.18888 6.12507 2.189C6.12539 2.18913 6.12698 2.18983 6.13003 2.19195C6.13317 2.19413 6.13858 2.19834 6.14599 2.20584C6.16014 2.22017 6.16343 2.22805 6.16395 2.2293L6.16395 2.22931L6.16398 2.22938C6.16446 2.23051 6.16667 2.23577 6.16667 2.25C6.16667 2.26423 6.16446 2.26949 6.16398 2.27062L6.16395 2.27069L6.16395 2.2707C6.16343 2.27195 6.16014 2.27983 6.14599 2.29416C6.13858 2.30166 6.13317 2.30587 6.13003 2.30805C6.12698 2.31017 6.12539 2.31087 6.12507 2.311C6.12478 2.31112 6.12426 2.31134 6.12289 2.31162C6.12145 2.3119 6.11775 2.3125 6.11111 2.3125H3.88889C3.88225 2.3125 3.87855 2.3119 3.87711 2.31162C3.87574 2.31134 3.87522 2.31112 3.87493 2.311C3.87461 2.31087 3.87302 2.31017 3.86997 2.30805C3.86683 2.30587 3.86142 2.30166 3.85401 2.29416C3.83983 2.2798 3.83656 2.27192 3.83605 2.27069L3.83602 2.27062C3.83554 2.26949 3.83333 2.26423 3.83333 2.25C3.83333 2.23577 3.83554 2.23051 3.83602 2.22938L3.83605 2.22931L3.83605 2.2293C3.83657 2.22805 3.83986 2.22017 3.85401 2.20584C3.86142 2.19834 3.86683 2.19413 3.86997 2.19195C3.87302 2.18983 3.87461 2.18913 3.87493 2.189C3.87522 2.18888 3.87574 2.18866 3.87711 2.18838C3.87855 2.1881 3.88225 2.1875 3.88889 2.1875Z" fill="#7B46BE" stroke="#7B46BE"/>
<path d="M19.3536 9.35355C19.5488 9.15829 19.5488 8.84171 19.3536 8.64645L16.1716 5.46447C15.9763 5.2692 15.6597 5.2692 15.4645 5.46447C15.2692 5.65973 15.2692 5.97631 15.4645 6.17157L18.2929 9L15.4645 11.8284C15.2692 12.0237 15.2692 12.3403 15.4645 12.5355C15.6597 12.7308 15.9763 12.7308 16.1716 12.5355L19.3536 9.35355ZM5 9.5H19V8.5H5V9.5Z" fill="#7B46BE"/>
</svg>
