<svg width="31" height="31" viewBox="0 0 31 31" fill="none" xmlns="http://www.w3.org/2000/svg">
<path d="M2.5 19C1.1215 19 0 17.8785 0 16.5C0 15.1215 1.1215 14 2.5 14C3.8785 14 5 15.1215 5 16.5C5 17.8785 3.8785 19 2.5 19V19ZM2.5 15C1.673 15 1 15.673 1 16.5C1 17.327 1.673 18 2.5 18C3.327 18 4 17.327 4 16.5C4 15.673 3.327 15 2.5 15V15Z" fill="#7B46BE"/>
<path d="M28.5 19C27.1215 19 26 17.8785 26 16.5C26 15.1215 27.1215 14 28.5 14C29.8785 14 31 15.1215 31 16.5C31 17.8785 29.8785 19 28.5 19ZM28.5 15C27.673 15 27 15.673 27 16.5C27 17.327 27.673 18 28.5 18C29.327 18 30 17.327 30 16.5C30 15.673 29.327 15 28.5 15Z" fill="#7B46BE"/>
<path d="M16.5 31C15.1215 31 14 29.8785 14 28.5C14 27.1215 15.1215 26 16.5 26C17.8785 26 19 27.1215 19 28.5C19 29.8785 17.8785 31 16.5 31ZM16.5 27C15.673 27 15 27.673 15 28.5C15 29.327 15.673 30 16.5 30C17.327 30 18 29.327 18 28.5C18 27.673 17.327 27 16.5 27Z" fill="#7B46BE"/>
<path d="M16.5 5C15.1215 5 14 3.8785 14 2.5C14 1.1215 15.1215 0 16.5 0C17.8785 0 19 1.1215 19 2.5C19 3.8785 17.8785 5 16.5 5ZM16.5 1C15.673 1 15 1.673 15 2.5C15 3.327 15.673 4 16.5 4C17.327 4 18 3.327 18 2.5C18 1.673 17.327 1 16.5 1Z" fill="#7B46BE"/>
<path d="M28.4511 14C28.187 14 27.9536 13.8191 27.9109 13.5654C27.7443 12.586 27.4528 11.6272 27.0435 10.7169C26.9256 10.4545 27.0555 10.1519 27.3344 10.0411C27.6139 9.92976 27.935 10.0524 28.0528 10.3148C28.4966 11.302 28.8133 12.3412 28.9931 13.4031C29.0407 13.684 28.8375 13.9485 28.5383 13.9933C28.5092 13.9979 28.4802 14 28.4511 14V14Z" fill="#7B46BE"/>
<path d="M25.3883 9C25.2053 9 25.0241 8.91796 24.9035 8.76184C24.1336 7.7645 23.2369 6.86757 22.238 6.09615C21.9705 5.88983 21.9209 5.50534 22.1278 5.2378C22.3347 4.97025 22.7191 4.92127 22.9865 5.12759C24.0681 5.96269 25.0388 6.9337 25.8724 8.01368C26.0787 8.28184 26.0297 8.66572 25.7623 8.87204C25.6503 8.95837 25.5193 9 25.3883 9V9Z" fill="#7B46BE"/>
<path d="M20.4841 4C20.4171 4 20.3491 3.98631 20.2836 3.95673C19.3732 3.54754 18.4144 3.25557 17.4344 3.08905C17.1534 3.04139 16.9617 2.76038 17.0065 2.4613C17.0514 2.16276 17.3163 1.95844 17.5968 2.00719C18.6592 2.18741 19.698 2.50402 20.6852 2.94772C20.9476 3.06549 21.0702 3.38704 20.9589 3.66586C20.8759 3.87456 20.6852 4 20.4841 4V4Z" fill="#7B46BE"/>
<path d="M17.5148 29C17.2658 29 17.0467 28.8077 17.0065 28.5388C16.9617 28.2397 17.1529 27.9587 17.4344 27.911C18.4143 27.7445 19.373 27.4525 20.2833 27.0433C20.5462 26.9261 20.8483 27.0548 20.9591 27.3342C21.0699 27.613 20.9478 27.9345 20.6854 28.0523C19.6983 28.496 18.6596 28.8127 17.5972 28.9929C17.5689 28.9978 17.5416 29 17.5148 29V29Z" fill="#7B46BE"/>
<path d="M22.6125 26C22.4294 26 22.2482 25.918 22.1276 25.7619C21.9213 25.4939 21.9702 25.1101 22.2378 24.9039C23.2357 24.1334 24.1326 23.2362 24.9033 22.238C25.109 21.97 25.4935 21.9216 25.7616 22.1272C26.0298 22.3341 26.0788 22.7184 25.8725 22.9859C25.038 24.0673 24.0671 25.0385 22.9865 25.8721C22.8751 25.9584 22.7435 26 22.6125 26Z" fill="#7B46BE"/>
<path d="M27.5477 21C27.4765 21 27.4042 20.9871 27.3346 20.9593C27.0557 20.8484 26.9253 20.5458 27.0437 20.2834C27.453 19.3725 27.745 18.4141 27.911 17.4347C27.9581 17.1532 28.2403 16.9609 28.5383 17.0068C28.8369 17.0516 29.0408 17.3161 28.9931 17.597C28.8128 18.6595 28.4967 19.6983 28.0529 20.6855C27.9647 20.8819 27.7614 21 27.5477 21Z" fill="#7B46BE"/>
<path d="M3.45188 21C3.23818 21 3.03543 20.8819 2.94721 20.6855C2.50337 19.6983 2.18666 18.659 2.00693 17.597C1.95926 17.3161 2.16255 17.0516 2.46173 17.0068C2.75762 16.9609 3.04201 17.1532 3.08913 17.4347C3.25571 18.4141 3.54722 19.373 3.95654 20.2834C4.07435 20.5458 3.94449 20.8484 3.66558 20.9593C3.59544 20.9866 3.52311 21 3.45188 21V21Z" fill="#7B46BE"/>
<path d="M8.38743 26C8.25644 26 8.12485 25.9584 8.01345 25.8721C6.93193 25.0371 5.96119 24.0662 5.12756 22.9863C4.92129 22.7182 4.97026 22.3343 5.23773 22.128C5.5052 21.9211 5.88897 21.9701 6.09646 22.2382C6.86644 23.2354 7.76312 24.1323 8.76201 24.9036C9.02948 25.1099 9.07906 25.4943 8.87218 25.7619C8.75161 25.918 8.57043 26 8.38743 26Z" fill="#7B46BE"/>
<path d="M13.4848 29C13.458 29 13.4306 28.9978 13.4028 28.9929C12.3405 28.8127 11.3019 28.496 10.3148 28.0523C10.0524 27.9345 9.92976 27.613 10.0411 27.3342C10.1519 27.0548 10.454 26.9261 10.7168 27.0433C11.6271 27.4525 12.5858 27.7445 13.5657 27.911C13.8466 27.9587 14.0383 28.2397 13.9935 28.5388C13.9528 28.8077 13.7337 29 13.4848 29V29Z" fill="#7B46BE"/>
<path d="M10.5157 4C10.3146 4 10.1239 3.87456 10.0409 3.66585C9.93005 3.38703 10.0522 3.06549 10.3146 2.94772C11.3019 2.50401 12.3407 2.1874 13.4032 2.00718C13.6842 1.95843 13.9486 2.1633 13.9935 2.46129C14.0383 2.76037 13.8471 3.04139 13.5656 3.08904C12.5856 3.25557 11.6267 3.54753 10.7162 3.95673C10.6502 3.98576 10.5827 4 10.5157 4V4Z" fill="#7B46BE"/>
<path d="M5.6118 9C5.4814 9 5.34977 8.95838 5.23835 8.8727C4.9702 8.66584 4.92123 8.28149 5.12754 8.01403C5.96198 6.93259 6.93294 5.96131 8.01349 5.12773C8.28102 4.92148 8.66488 4.96983 8.87241 5.2379C9.07873 5.50596 9.02975 5.8897 8.76222 6.09595C7.76432 6.86649 6.86743 7.76371 6.09667 8.76192C5.97606 8.91799 5.79485 9 5.6118 9V9Z" fill="#7B46BE"/>
<path d="M2.54878 14C2.51974 14 2.49125 13.9979 2.46167 13.9933C2.16306 13.9485 1.95925 13.684 2.00692 13.4031C2.18717 12.3407 2.50331 11.302 2.9471 10.3148C3.06489 10.0524 3.38596 9.92976 3.66538 10.0411C3.94426 10.1519 4.07466 10.4545 3.95631 10.7169C3.54704 11.6278 3.25501 12.586 3.089 13.5654C3.04627 13.8196 2.81341 14 2.54878 14Z" fill="#7B46BE"/>
<path d="M11.4 17C11.3082 17 11.2164 16.9825 11.1318 16.9475L6.3318 14.9476C6.1284 14.8626 6 14.6896 6 14.5001V10.5003C6 10.3268 6.108 10.1663 6.2844 10.0748C6.4614 9.98284 6.6828 9.97584 6.8682 10.0528L11.6682 12.0527C11.8716 12.1377 12 12.3107 12 12.5002V16.5C12 16.6735 11.892 16.834 11.7156 16.9255C11.619 16.975 11.5092 17 11.4 17V17ZM7.2 14.1911L10.8 15.6911V12.8092L7.2 11.3093V14.1911Z" fill="#7B46BE"/>
<path d="M11.5 17C11.4085 17 11.3175 16.975 11.237 16.9255C11.09 16.834 11 16.6735 11 16.5V12.5002C11 12.3107 11.107 12.1377 11.2765 12.0527L15.2765 10.0528C15.4315 9.97584 15.6155 9.98284 15.763 10.0748C15.91 10.1663 16 10.3268 16 10.5003V14.5001C16 14.6896 15.893 14.8626 15.7235 14.9476L11.7235 16.9475C11.653 16.9825 11.5765 17 11.5 17V17ZM12 12.8092V15.6911L15 14.1911V11.3093L12 12.8092Z" fill="#7B46BE"/>
<path d="M10.9997 13C10.9147 13 10.8292 12.9825 10.7514 12.9475L6.30721 10.9477C6.11888 10.8627 6 10.6897 6 10.5002C6 10.3107 6.11888 10.1377 6.30721 10.0527L10.7514 8.05287C10.9075 7.98238 11.0919 7.98238 11.2486 8.05287L15.6928 10.0527C15.8811 10.1377 16 10.3107 16 10.5002C16 10.6897 15.8811 10.8627 15.6928 10.9477L11.2486 12.9475C11.1697 12.9825 11.0847 13 10.9997 13ZM7.79768 10.5002L10.9997 11.9411L14.2018 10.5002L10.9997 9.0593L7.79768 10.5002Z" fill="#7B46BE"/>
<path d="M19.5 17C19.4235 17 19.347 16.9825 19.2765 16.9475L15.2765 14.9476C15.107 14.8626 15 14.6896 15 14.5001V10.5003C15 10.3268 15.09 10.1663 15.237 10.0748C15.3845 9.98284 15.569 9.97584 15.7235 10.0528L19.7235 12.0527C19.893 12.1377 20 12.3107 20 12.5002V16.5C20 16.6735 19.91 16.834 19.763 16.9255C19.6825 16.975 19.591 17 19.5 17V17ZM16 14.1911L19 15.6911V12.8092L16 11.3093V14.1911Z" fill="#7B46BE"/>
<path d="M19.6 17C19.4902 17 19.381 16.975 19.2844 16.9255C19.108 16.834 19 16.6735 19 16.5V12.5002C19 12.3107 19.1284 12.1377 19.3318 12.0527L24.1318 10.0528C24.3178 9.97584 24.5386 9.98284 24.7156 10.0748C24.892 10.1663 25 10.3268 25 10.5003V14.5001C25 14.6896 24.8716 14.8626 24.6682 14.9476L19.8682 16.9475C19.7836 16.9825 19.6918 17 19.6 17V17ZM20.2 12.8092V15.6911L23.8 14.1911V11.3093L20.2 12.8092Z" fill="#7B46BE"/>
<path d="M19.9997 13C19.9147 13 19.8292 12.9825 19.7514 12.9475L15.3072 10.9477C15.1189 10.8627 15 10.6897 15 10.5002C15 10.3107 15.1189 10.1377 15.3072 10.0527L19.7514 8.05287C19.9075 7.98238 20.0919 7.98238 20.2486 8.05287L24.6928 10.0527C24.8811 10.1377 25 10.3107 25 10.5002C25 10.6897 24.8811 10.8627 24.6928 10.9477L20.2486 12.9475C20.1697 12.9825 20.0847 13 19.9997 13ZM16.7977 10.5002L19.9997 11.9411L23.2018 10.5002L19.9997 9.0593L16.7977 10.5002Z" fill="#7B46BE"/>
<path d="M15.5 24C15.4235 24 15.347 23.98 15.2765 23.94L11.2765 21.6544C11.107 21.5573 11 21.3596 11 21.143V16.5718C11 16.3735 11.09 16.1901 11.237 16.0855C11.3845 15.9804 11.5685 15.9724 11.7235 16.0604L15.7235 18.346C15.893 18.4431 16 18.6408 16 18.8574V23.4286C16 23.6269 15.91 23.8103 15.763 23.9149C15.6825 23.9714 15.591 24 15.5 24V24ZM12 20.7899L15 22.5041V19.2105L12 17.4963V20.7899Z" fill="#7B46BE"/>
<path d="M15.5 24C15.4085 24 15.3175 23.9714 15.237 23.9149C15.09 23.8103 15 23.6269 15 23.4286V18.8574C15 18.6408 15.107 18.4431 15.2765 18.346L19.2765 16.0604C19.4315 15.9724 19.6155 15.9804 19.763 16.0855C19.91 16.1901 20 16.3735 20 16.5718V21.143C20 21.3596 19.893 21.5573 19.7235 21.6544L15.7235 23.94C15.653 23.98 15.5765 24 15.5 24V24ZM16 19.2105V22.5041L19 20.7899V17.4963L16 19.2105Z" fill="#7B46BE"/>
<path d="M15.4998 19C15.4233 19 15.3463 18.9825 15.2763 18.9475L11.2765 16.9477C11.107 16.8627 11 16.6897 11 16.5002C11 16.3107 11.107 16.1377 11.2765 16.0527L15.2763 14.0529C15.4168 13.9824 15.5827 13.9824 15.7237 14.0529L19.7235 16.0527C19.893 16.1377 20 16.3107 20 16.5002C20 16.6897 19.893 16.8627 19.7235 16.9477L15.7237 18.9475C15.6527 18.9825 15.5762 19 15.4998 19ZM12.6179 16.5002L15.4998 17.9411L18.3816 16.5002L15.4998 15.0593L12.6179 16.5002Z" fill="#7B46BE"/>
</svg>
