<svg width="53" height="79" viewBox="0 0 53 79" fill="none" xmlns="http://www.w3.org/2000/svg">
<path d="M44.1076 75.7887L44.1082 75.7887C45.5933 75.7855 46.6743 75.4384 47.4343 74.813C48.1918 74.1897 48.6951 73.2366 48.9201 71.8905C49.2265 70.0544 49.5227 68.214 49.8191 66.3722C50.5998 61.5208 51.3821 56.6591 52.3582 51.8394M44.1076 75.7887L4.91563 46.2069C7.97075 46.182 11.0251 46.1903 14.0861 46.1986C15.6195 46.2028 17.1545 46.2069 18.6921 46.2069L18.6928 46.2069L26.5808 46.1967C26.5809 46.1967 26.581 46.1967 26.5811 46.1967C28.6177 46.1967 30.6564 46.2048 32.6962 46.2129C37.6563 46.2325 42.6235 46.2522 47.5841 46.1559L47.5747 45.656L47.5844 46.1559C49.2766 46.124 50.6409 46.6583 51.4897 47.602C52.3313 48.5378 52.7358 49.9538 52.3582 51.8394M44.1076 75.7887C38.9213 75.8068 33.7359 75.8008 28.5492 75.7948C25.9552 75.7917 23.3609 75.7887 20.766 75.7887H20.743H20.7201H20.6971H20.6741H20.6512H20.6282H20.6052H20.5823H20.5593H20.5363H20.5134H20.4904H20.4674H20.4445H20.4215H20.3986H20.3756H20.3526H20.3297H20.3067H20.2837H20.2608H20.2378H20.2148H20.1919H20.1689H20.146H20.123H20.1H20.0771H20.0541H20.0311H20.0082H19.9852H19.9622H19.9393H19.9163H19.8934H19.8704H19.8474H19.8245H19.8015H19.7785H19.7556H19.7326H19.7096H19.6867H19.6637H19.6408H19.6178H19.5948H19.5719H19.5489H19.5259H19.503H19.48H19.457H19.4341H19.4111H19.3881H19.3652H19.3422H19.3193H19.2963H19.2733H19.2504H19.2274H19.2044H19.1815H19.1585H19.1355H19.1126H19.0896H19.0666H19.0437H19.0207H18.9978H18.9748H18.9518H18.9289H18.9059H18.8829H18.86H18.837H18.814H18.7911H18.7681H18.7451H18.7222H18.6992H18.6762H18.6533H18.6303H18.6074H18.5844H18.5614H18.5385H18.5155H18.4925H18.4696H18.4466H18.4236H18.4007H18.3777H18.3547H18.3318H18.3088H18.2858H18.2629H18.2399H18.2169H18.194H18.171H18.148H18.1251H18.1021H18.0792H18.0562H18.0332H18.0103H17.9873H17.9643H17.9414H17.9184H17.8954H17.8725H17.8495H17.8265H17.8036H17.7806H17.7576H17.7347H17.7117H17.6887H17.6658H17.6428H17.6198H17.5969H17.5739H17.5509H17.528H17.505H17.482H17.4591H17.4361H17.4131H17.3902H17.3672H17.3442H17.3213H17.2983H17.2753H17.2524H17.2294H17.2064H17.1835H17.1605H17.1375H17.1146H17.0916H17.0686H17.0457H17.0227H16.9997H16.9768H16.9538H16.9308H16.9078H16.8849H16.8619H16.8389H16.816H16.793H16.77H16.7471H16.7241H16.7011H16.6782H16.6552H16.6322H16.6093H16.5863H16.5633H16.5404H16.5174H16.4944H16.4714H16.4485H16.4255H16.4025H16.3796H16.3566H16.3336H16.3107H16.2877H16.2647H16.2418H16.2188H16.1958H16.1728H16.1499H16.1269H16.1039H16.081H16.058H16.035H16.0121H15.9891H15.9661H15.9431H15.9202H15.8972H15.8742H15.8513H15.8283H15.8053H15.7824H15.7594H15.7364H15.7134H15.6905H15.6675H15.6445H15.6216H15.5986H15.5756H15.5526H15.5297H15.5067H15.4837H15.4608H15.4378H15.4148H15.3918H15.3689H15.3459H15.3229H15.3H15.277H15.254H15.231H15.2081H15.1851H15.1621H15.1391H15.1162H15.0932H15.0702H15.0473H15.0243H15.0013H14.9783H14.9554H14.9324H14.9094H14.8864H14.8635H14.8405H14.8175H14.7945H14.7716H14.7486H14.7256H14.7027H14.6797H14.6567H14.6337H14.6108H14.5878H14.5648H14.5418H14.5189H14.4959H14.4729H14.4499H14.427H14.404H14.381H14.358H14.3351H14.3121H14.2891H14.2661H14.2432H14.2202H14.1972H14.1742H14.1513H14.1283H14.1053H14.0823H14.0593H14.0364H14.0134H13.9904H13.9674H13.9445H13.9215H13.8985H13.8755H13.8526H13.8296H13.8066H13.7836H13.7606H13.7377H13.7147H13.6917H13.6687H13.6458H13.6228H13.5998H13.5768H13.5538H13.5309H13.5079H13.4849H13.4619H13.4389H13.416H13.393H13.37H13.347H13.3241H13.3011H13.2781H13.2551H13.2321H13.2092H13.1862H13.1632H13.1402H13.1172H13.0943H13.0713H13.0483H13.0253H13.0023H12.9794H12.9564H12.9334H12.9104H12.8874H12.8644H12.8415H12.8185H12.7955H12.7725H12.7495H12.7266H12.7036H12.6806H12.6576H12.6346H12.6116H12.5887H12.5657H12.5427H12.5197H12.4967H12.4737H12.4508H12.4278H12.4048H12.3818H12.3588H12.3358H12.3129H12.2899H12.2669H12.2439H12.2209H12.1979H12.175H12.152H12.129H12.106H12.083H12.06H12.037H12.0141H11.9911H11.9681H11.9451H11.9221H11.8991H11.8761H11.8532H11.8302H11.8072H11.7842H11.7612H11.7382H11.7152H11.6923H11.6693H11.6463H11.6233H11.6003H11.5773H11.5543H11.5313H11.5083H11.4854H11.4624H11.4394H11.4164H11.3934H11.3704H11.3474H11.3244H11.3015H11.2785H11.2555H11.2325H11.2095H11.1865H11.1635H11.1405H11.1175H11.0945H11.0716H11.0486H11.0256H11.0026H10.9796H10.9566H10.9336H10.9106H10.8876H10.8646H10.8416H10.8187H10.7957H10.7727H10.7497H10.7267H10.7037H10.6807H10.6577H10.6347H10.6117H10.5887H10.5657H10.5427H10.5197H10.4968H10.4738H10.4508H10.4278H10.4048H10.3818H10.3588H10.3358H10.3128H10.2898H10.2668H10.2438H10.2208H10.1978H10.1748H10.1518H10.1288H10.1058H10.0828H10.0598H10.0369H10.0139H9.99086H9.96786H9.94487H9.92187H9.89887H9.87587H9.85288H9.82988H9.80688H9.78388H9.76089H9.73789H9.71489H9.69189H9.66889H9.64589H9.62289H9.5999H9.5769H9.5539H9.5309H9.5079H9.4849H9.4619H9.4389H9.4159H9.3929H9.3699H9.3469H9.3239H9.30089H9.27789H9.25489H9.23189H9.20889H9.18589H9.16288H9.13988H9.11688H9.09388H9.07088H9.04787H9.02487H9.00355M44.1076 75.7887L44.1093 76.2887C38.9219 76.3068 33.7345 76.3008 28.5471 76.2948C25.9534 76.2917 23.3597 76.2887 20.766 76.2887H9.00187M52.3582 51.8394C52.3583 51.8392 52.3583 51.839 52.3583 51.8388L52.8484 51.9381L52.3581 51.8398C52.3582 51.8397 52.3582 51.8395 52.3582 51.8394ZM9.00187 76.2887L9.00483 75.7887C9.0044 75.7887 9.00398 75.7887 9.00355 75.7887M9.00187 76.2887C5.56003 76.2683 4.05758 74.8795 3.4929 71.4464C2.78598 67.146 2.05264 62.8498 1.3197 58.556C0.913095 56.1739 0.506614 53.7926 0.10484 51.4117M9.00187 76.2887L0.10484 51.4117M9.00355 75.7887C7.34205 75.7787 6.24816 75.438 5.50059 74.7736C4.74873 74.1054 4.2607 73.0337 3.98628 71.3653C3.27914 67.0636 2.5453 62.7645 1.81217 58.4695C1.40565 56.0879 0.999342 53.7076 0.59793 51.3289M9.00355 75.7887L0.59793 51.3289M0.59793 51.3289C0.325639 49.7003 0.634449 48.4435 1.34578 47.5959C2.05704 46.7483 3.24505 46.2214 4.91539 46.2069L0.59793 51.3289ZM0.10484 51.4117C-0.473282 47.9549 1.36864 45.7375 4.91132 45.7069C7.96912 45.682 11.0284 45.6903 14.0912 45.6986C15.6239 45.7028 17.1574 45.7069 18.6921 45.7069L0.10484 51.4117Z" stroke="#7B46BE"/>
<path d="M10.9446 16.9792C10.814 16.1409 10.9366 15.2822 11.2964 14.5153C11.6561 13.7484 12.2364 13.1089 12.9613 12.6802C13.7546 12.1709 13.7176 11.3219 13.8487 10.5749C14.8167 5.06363 18.9846 0.897092 24.3322 0.146639C30.305 -0.688707 35.6829 2.09238 38.113 7.27764C38.4167 7.8835 38.635 8.52928 38.7617 9.19622C39.0407 10.9416 39.5818 12.361 41.007 13.6684C43.1884 15.6718 42.2472 20.5786 39.7163 22.1203C38.2037 23.0541 36.9803 24.2223 36.308 25.9643C35.6735 27.6633 34.7385 29.2316 33.5485 30.5926C29.4277 35.3093 23.2633 35.2447 19.2602 30.4228C17.7062 28.5495 16.5609 26.366 15.899 24.0151C15.6368 23.0915 15.3175 22.5006 14.1546 22.3478C11.8656 22.0388 10.9446 20.4123 10.9446 16.9792ZM34.7451 17.2542H34.8728C34.8358 16.298 34.7461 15.3446 34.6039 14.3985C34.3754 13.2337 33.7099 12.5512 32.4293 13.0707C28.4429 14.6939 24.4633 14.626 20.4836 13.0707C19.2971 12.6021 18.6955 13.1183 18.393 14.2524C18.0569 15.536 18.2585 16.8434 18.1543 18.1303C18.0938 18.8468 18.961 20.2221 17.1124 20.0489C16.83 20.0218 16.8737 20.4972 16.9275 20.7688C17.5325 23.7265 18.4501 26.5619 20.5105 28.8642C24.1708 33.0036 29.1219 32.939 32.6511 28.6604C33.2023 27.9813 34.2208 27.2139 33.7737 26.4125C33.4376 25.7809 32.3688 26.5891 31.6125 26.657C29.616 26.8403 27.7169 27.7436 25.6598 27.4787C24.5339 27.3361 23.6902 26.8268 23.7541 25.5602C23.8146 24.4124 24.5776 23.8861 25.6834 23.8623C26.6346 23.8623 27.5757 23.9031 28.5269 23.9913C31.0142 24.2155 33.2864 23.4446 35.293 21.9947C36.2375 21.3155 36.0963 20.6635 35.0274 20.015C34.7249 19.8316 34.7619 19.5531 34.7585 19.2781L34.7451 17.2542ZM35.7803 9.51202C33.7636 4.65954 30.2075 2.59495 25.1288 2.99564C21.5693 3.27409 18.2249 5.9635 17.3981 9.19961C23.1491 3.22316 30.0495 3.22655 35.7803 9.5256V9.51202Z" fill="#7B46BE"/>
<path d="M26.3086 44.5049H6.00371C4.04078 44.5049 3.82231 44.2027 4.57857 42.352C6.69275 37.1939 10.3732 33.8831 15.8351 32.6674C16.8435 32.4399 17.5157 32.5146 17.9123 33.659C18.309 34.8033 19.2299 35.4858 20.2652 35.9782C24.2078 37.8832 28.2412 37.8968 32.2746 36.2091C33.5317 35.6794 34.6476 34.8814 35.1316 33.4926C35.4678 32.5146 36.0862 32.4365 36.9769 32.63C42.7111 33.8729 46.5092 37.306 48.536 42.8376C49.0267 44.1755 48.5931 44.5354 47.289 44.5117C40.2944 44.4845 33.3032 44.4845 26.3086 44.4845V44.5049Z" fill="#7B46BE"/>
<path d="M26.6514 76.5164C32.7553 76.5164 38.8603 76.5164 44.9664 76.5164C45.3563 76.5164 45.7496 76.5164 46.1395 76.5164C46.8453 76.5401 47.5949 76.6352 47.5881 77.5351C47.5814 78.4349 46.8251 78.5538 46.1428 78.6353C45.8636 78.663 45.5829 78.6721 45.3025 78.6624H8.17165C7.61027 78.6684 7.04905 78.6401 6.49106 78.5776C5.89949 78.5029 5.35498 78.238 5.36507 77.5588C5.36507 76.7608 5.98688 76.5639 6.6524 76.5401C7.15657 76.5164 7.66075 76.5164 8.16493 76.5164H26.6514Z" fill="#7B46BE"/>
</svg>
