<svg width="21" height="38" viewBox="0 0 21 38" fill="none" xmlns="http://www.w3.org/2000/svg">
<path d="M17.5 0.276123H3.5C2.86806 0.276123 2.28472 0.432699 1.75 0.74585C1.21528 1.059 0.789931 1.48055 0.473958 2.0105C0.157986 2.54045 0 3.11857 0 3.74487V33.8074C0 34.7709 0.340278 35.5899 1.02083 36.2644C1.70139 36.9389 2.52778 37.2761 3.5 37.2761H17.5C18.4722 37.2761 19.2986 36.9389 19.9792 36.2644C20.6597 35.5899 21 34.7709 21 33.8074V3.74487C21 3.11857 20.842 2.54045 20.526 2.0105C20.2101 1.48055 19.7847 1.059 19.25 0.74585C18.7153 0.432699 18.1319 0.276123 17.5 0.276123ZM18.6667 33.8074C18.6667 34.1205 18.5512 34.3915 18.3203 34.6204C18.0894 34.8492 17.816 34.9636 17.5 34.9636H3.5C3.18403 34.9636 2.91059 34.8492 2.67969 34.6204C2.44878 34.3915 2.33333 34.1205 2.33333 33.8074V3.74487C2.33333 3.43172 2.44878 3.16073 2.67969 2.93188C2.91059 2.70304 3.18403 2.58862 3.5 2.58862H17.5C17.816 2.58862 18.0894 2.70304 18.3203 2.93188C18.5512 3.16073 18.6667 3.43172 18.6667 3.74487V33.8074ZM10.5182 29.1824C9.87413 29.1824 9.32118 29.4112 8.85938 29.8689C8.39757 30.3266 8.16667 30.8686 8.16667 31.4949C8.16667 31.9044 8.26997 32.2898 8.47656 32.6511C8.68316 33.0125 8.96875 33.2955 9.33333 33.5002C9.69792 33.705 10.0868 33.8074 10.5 33.8074C10.9132 33.8074 11.3021 33.705 11.6667 33.5002C12.0312 33.2955 12.3168 33.0125 12.5234 32.6511C12.73 32.2898 12.8333 31.9044 12.8333 31.4949C12.8333 30.8686 12.6085 30.3266 12.1589 29.8689C11.7092 29.4112 11.1623 29.1824 10.5182 29.1824ZM12.8333 3.74487H8.16667C7.85069 3.74487 7.57726 3.85929 7.34635 4.08813C7.11545 4.31698 7 4.58797 7 4.90112C7 5.21427 7.11545 5.48527 7.34635 5.71411C7.57726 5.94295 7.85069 6.05737 8.16667 6.05737H12.8333C13.1493 6.05737 13.4227 5.94295 13.6536 5.71411C13.8845 5.48527 14 5.21427 14 4.90112C14 4.58797 13.8845 4.31698 13.6536 4.08813C13.4227 3.85929 13.1493 3.74487 12.8333 3.74487Z" fill="#7B46BE"/>
</svg>
