<svg width="45" height="59" viewBox="0 0 45 59" fill="none" xmlns="http://www.w3.org/2000/svg">
<path d="M2.64735 28.2609C2.64735 33.7437 2.64735 39.2289 2.64735 44.7166C2.64735 46.3209 2.67207 46.3555 4.32326 46.3555C13.8349 46.3555 23.3474 46.3481 32.8608 46.3333C36.1063 46.3333 35.4636 46.363 35.5205 48.9971C35.5476 50.1928 35.5205 51.3886 35.5205 52.5843C35.5205 56.3696 33.2488 58.8997 29.4669 58.9393C21.6015 59.0202 13.7361 59.0202 5.87064 58.9393C2.29882 58.9047 0 56.3919 0 52.822C0 37.2335 0 21.6443 0 6.05422C0 2.87052 1.99973 0.521112 5.16369 0.184422C8.32766 -0.152268 11.5905 0.0804442 14.8039 0.0532119C19.446 0.0136013 24.098 0.105201 28.7501 0.0334066C33.2834 -0.0359119 35.8418 2.96954 35.5378 6.82663C35.429 8.22042 35.5007 9.62908 35.5254 11.0353C35.5402 11.8027 35.382 12.3375 34.4526 12.2731C33.7111 12.2236 32.7668 12.486 32.8657 11.1986C32.9275 10.399 32.4603 10.2356 31.7855 10.2381C22.437 10.2381 13.0893 10.2381 3.74238 10.2381C2.71903 10.2381 2.63993 10.7679 2.64241 11.57C2.65971 17.1378 2.64241 22.7105 2.64241 28.2733L2.64735 28.2609ZM17.7578 49.1481C13.1453 49.1481 8.53282 49.1679 3.91541 49.1308C2.96375 49.1308 2.546 49.4006 2.63005 50.3958C2.69431 51.1732 2.63005 51.9604 2.64488 52.7452C2.67207 54.9164 3.85608 56.1592 5.99918 56.1641C13.825 56.179 21.6526 56.179 29.4817 56.1641C31.5457 56.1641 32.7594 54.9585 32.8608 52.869C32.8978 52.0867 32.8064 51.2945 32.8855 50.5196C32.9992 49.4031 32.5394 49.1134 31.474 49.1258C26.9011 49.1753 22.3282 49.1456 17.7578 49.1481ZM17.6391 7.42574C22.2928 7.42574 26.9473 7.42574 31.6026 7.42574C32.1538 7.42574 32.7668 7.55942 32.8706 6.66076C33.103 4.63566 31.7484 2.8928 29.7166 2.88289C21.7275 2.85319 13.7352 2.85319 5.73963 2.88289C3.93765 2.88289 2.77341 4.13806 2.63746 5.92301C2.55589 6.99249 2.82532 7.4802 4.04147 7.46287C8.57731 7.38365 13.1008 7.42574 17.6391 7.42574Z" fill="#7B46BE"/>
<path d="M45 29.0848C44.9852 37.663 35.8369 43.2927 28.1272 39.4381C27.7921 39.2447 27.4168 39.1318 27.0308 39.1081C26.6448 39.0845 26.2586 39.1508 25.9025 39.3019C24.7086 39.7822 23.4875 40.1882 22.3085 40.7007C21.4829 41.0621 21.2456 40.4828 20.8896 39.9901C20.4892 39.4381 20.8056 39.1113 21.2233 38.8241C21.9846 38.2968 22.5581 37.5863 23.2008 36.9352C23.7817 36.3509 23.8336 35.8706 23.3812 35.0933C20.8377 30.7237 20.939 26.3567 23.8286 22.1976C26.7677 17.9691 32.092 16.3228 37.0852 17.9369C41.8336 19.4694 45.0099 23.9478 45 29.0848Z" fill="#7B46BE"/>
<path d="M17.1423 51.2122C18.3337 51.2122 19.5251 51.2494 20.7141 51.2122C21.6806 51.1751 21.9105 51.6801 21.8882 52.5095C21.8709 53.2695 21.819 53.8959 20.7882 53.881C18.3263 53.8463 15.8627 53.8463 13.3974 53.881C12.3123 53.881 12.4087 53.1779 12.3716 52.4649C12.3419 51.695 12.5298 51.19 13.4469 51.2271C14.6778 51.2444 15.9113 51.2098 17.1423 51.2122Z" fill="#7B46BE"/>
<path d="M17.1917 6.30375C16.5342 6.30375 15.8792 6.30375 15.2143 6.30375C13.7756 6.30375 13.2022 5.43232 13.704 4.07565C13.7616 3.89367 13.8814 3.73783 14.0423 3.63551C14.2032 3.53319 14.395 3.49093 14.5839 3.51615C16.3966 3.51615 18.2003 3.51615 19.9948 3.51615C21.0775 3.51615 20.9193 4.31827 20.9415 5.00155C20.9638 5.74425 20.8501 6.32108 19.9083 6.29632C19.0086 6.27157 18.1063 6.29632 17.2041 6.29632L17.1917 6.30375Z" fill="#7B46BE"/>
</svg>
