<svg width="52" height="58" viewBox="0 0 52 58" fill="none" xmlns="http://www.w3.org/2000/svg">
<ellipse cx="15.5" cy="7" rx="7.5" ry="7" fill="#7B46BE"/>
<circle cx="42.5" cy="35.5" r="5.5" fill="#7B46BE"/>
<path d="M29 32.8241C29 41.5634 22.5081 36.5917 14.5 36.5917C6.49187 36.5917 0 41.5634 0 32.8241C0 24.0847 6.49187 17 14.5 17C22.5081 17 29 24.0847 29 32.8241Z" fill="#7B46BE"/>
<path d="M52 54.3029C52 60.5453 47.299 56.9941 41.5 56.9941C35.701 56.9941 31 60.5453 31 54.3029C31 48.0605 35.701 43 41.5 43C47.299 43 52 48.0605 52 54.3029Z" fill="#7B46BE"/>
<path d="M28 8.5C31.6667 9.33333 39.9 13.6 43.5 24" stroke="#7B46BE" stroke-linecap="round"/>
<path d="M25.7928 53.2979C22.0399 53.0656 13.2271 50.1798 8.00001 40.4949" stroke="#7B46BE" stroke-linecap="round"/>
</svg>
