<svg width="24" height="24" viewBox="0 0 24 24" fill="none" xmlns="http://www.w3.org/2000/svg">
<path d="M6.19348 18.5806H6.96768V19.3548H6.19348V18.5806Z" fill="#7B46BE"/>
<path d="M6.19348 20.129H6.96768V20.9032H6.19348V20.129Z" fill="#7B46BE"/>
<path d="M18.5807 15.4839C16.8732 15.4839 15.4839 16.8732 15.4839 18.5807C15.4839 20.2881 16.8732 21.6774 18.5807 21.6774C20.2881 21.6774 21.6774 20.2881 21.6774 18.5807C21.6774 16.8732 20.2881 15.4839 18.5807 15.4839ZM18.5807 20.9032C17.2998 20.9032 16.2581 19.8616 16.2581 18.5807C16.2581 17.2998 17.2998 16.2581 18.5807 16.2581C19.8616 16.2581 20.9032 17.2998 20.9032 18.5807C20.9032 19.8616 19.8616 20.9032 18.5807 20.9032Z" fill="#7B46BE"/>
<path d="M18.5806 17.0322C17.7267 17.0322 17.0322 17.7267 17.0322 18.5806C17.0322 19.4345 17.7267 20.129 18.5806 20.129C19.4345 20.129 20.129 19.4345 20.129 18.5806C20.129 17.7267 19.4345 17.0322 18.5806 17.0322ZM18.5806 19.3548C18.1536 19.3548 17.8064 19.0076 17.8064 18.5806C17.8064 18.1536 18.1536 17.8064 18.5806 17.8064C19.0076 17.8064 19.3548 18.1536 19.3548 18.5806C19.3548 19.0076 19.0076 19.3548 18.5806 19.3548Z" fill="#7B46BE"/>
<path d="M22.879 16.8298C22.752 16.5228 22.7779 16.1694 22.9494 15.8845L23.1735 15.5094L21.6519 13.9881L21.2311 14.239C20.9745 14.3934 20.6559 14.4163 20.3799 14.3021C20.0741 14.1755 19.8437 13.9076 19.7632 13.5859L19.6564 13.1613H18.9677V12C18.9677 11.7863 19.1412 11.6129 19.3548 11.6129H20.5161C21.1564 11.6129 21.6774 11.0919 21.6774 10.4516C21.6774 9.81135 21.1564 9.29032 20.5161 9.29032H15.0968C14.8831 9.29032 14.7097 9.1169 14.7097 8.90323C14.7097 8.68955 14.8831 8.51613 15.0968 8.51613H15.4839H22.0645C23.1317 8.51613 24 7.64787 24 6.58065C24 5.93923 23.683 5.37406 23.2006 5.02142C23.2157 4.89677 23.2258 4.77135 23.2258 4.64516C23.2258 2.93768 21.8365 1.54839 20.129 1.54839C19.6994 1.54839 19.289 1.63935 18.9143 1.79961C18.3058 0.696387 17.155 0 15.871 0C13.9498 0 12.3871 1.56271 12.3871 3.48387C12.3871 3.65458 12.4026 3.82374 12.4274 3.99174C12.3735 4.00994 12.3197 4.02852 12.2675 4.05019C12.0337 3.49084 11.4817 3.09677 10.8387 3.09677C10.5554 3.09677 10.2933 3.17884 10.0645 3.312V3.09677C10.0645 2.24284 9.37006 1.54839 8.51613 1.54839C8.23277 1.54839 7.97071 1.63045 7.74194 1.76361V1.54839C7.74194 0.694452 7.04748 0 6.19355 0C5.33961 0 4.64516 0.694452 4.64516 1.54839V1.76361C4.41639 1.63045 4.15432 1.54839 3.87097 1.54839C3.01703 1.54839 2.32258 2.24284 2.32258 3.09677V5.61019C2.02761 5.48787 1.70477 5.41935 1.36606 5.41935C0.612774 5.41935 0 6.02981 0 6.78039C0 6.95303 0.0325162 7.12297 0.0971613 7.28594C0.546194 8.4089 0.774194 9.5911 0.774194 10.8V13.0796C0.774194 14.8761 1.62813 16.5495 3.07084 17.6032L2.2711 24H10.8902L10.0908 17.6032C11.5332 16.5495 12.3871 14.8761 12.3871 13.0796V8.38064C12.6298 8.46697 12.8895 8.51613 13.1613 8.51613H14.0067C13.9634 8.63768 13.9355 8.76697 13.9355 8.90323C13.9355 9.54348 14.4565 10.0645 15.0968 10.0645H20.5161C20.7298 10.0645 20.9032 10.2379 20.9032 10.4516C20.9032 10.6653 20.7298 10.8387 20.5161 10.8387H19.3548C18.7146 10.8387 18.1935 11.3597 18.1935 12V13.1613H17.5045L17.3915 13.613C17.3152 13.9177 17.0961 14.1716 16.8058 14.292C16.5143 14.4132 16.1779 14.3884 15.9062 14.2254L15.5098 13.9877L13.9877 15.5094L14.2123 15.8849C14.383 16.1694 14.4093 16.5228 14.2823 16.8298C14.1681 17.1054 13.927 17.3129 13.6378 17.3857L13.1613 17.5041V19.6575L13.6374 19.7764C13.9266 19.8492 14.1677 20.0566 14.2819 20.3323C14.4089 20.6392 14.383 20.9926 14.2115 21.2775L13.9874 21.6526L15.5094 23.1743L15.9062 22.9366C16.1768 22.7741 16.5132 22.7497 16.8054 22.8701C17.0957 22.9905 17.3145 23.2444 17.3911 23.5494L17.5045 24H19.6568L19.7636 23.5742C19.8441 23.2533 20.0745 22.9854 20.3803 22.8588C20.6566 22.7443 20.9745 22.7675 21.2326 22.9223L21.6523 23.1728L23.1739 21.6515L22.9494 21.276C22.7787 20.9915 22.7524 20.6381 22.8794 20.3311C22.9935 20.0555 23.2347 19.848 23.5239 19.7752L24 19.6572V17.5037L23.5239 17.3849C23.2343 17.3129 22.9932 17.105 22.879 16.8298ZM3.14826 23.2258L3.82568 17.8065H4.64516V20.5161C4.64516 21.5834 5.51342 22.4516 6.58065 22.4516C7.64787 22.4516 8.51613 21.5834 8.51613 20.5161V17.8065H9.33561L10.013 23.2258H3.14826ZM5.41935 17.8065H7.74194V20.5161C7.74194 21.1564 7.2209 21.6774 6.58065 21.6774C5.94039 21.6774 5.41935 21.1564 5.41935 20.5161V17.8065ZM11.6129 13.0796C11.6129 14.6613 10.841 16.1284 9.54813 17.0323H3.61316C2.32026 16.1284 1.54839 14.6613 1.54839 13.0796V10.8C1.54839 9.49239 1.30181 8.21303 0.816387 6.9991C0.788516 6.92826 0.774194 6.85471 0.774194 6.78C0.774194 6.45677 1.04013 6.19355 1.36606 6.19355C2.32026 6.19355 3.09677 6.97006 3.09677 7.92464V10.3037L3.47419 10.4923C4.19652 10.8534 4.64516 11.5796 4.64516 12.3871H5.41935C5.41935 11.3032 4.82787 10.3274 3.87097 9.82606V7.92464C3.87097 7.21471 3.5729 6.57406 3.09677 6.11806V3.09677C3.09677 2.66981 3.444 2.32258 3.87097 2.32258C4.29794 2.32258 4.64516 2.66981 4.64516 3.09677V9.11032H5.41935V1.54839C5.41935 1.12142 5.76658 0.774194 6.19355 0.774194C6.62052 0.774194 6.96774 1.12142 6.96774 1.54839V8.90323H7.74194V3.09677C7.74194 2.66981 8.08916 2.32258 8.51613 2.32258C8.9431 2.32258 9.29032 2.66981 9.29032 3.09677V8.90323H10.0645V4.64516C10.0645 4.21819 10.4117 3.87097 10.8387 3.87097C11.2099 3.87097 11.5204 4.13419 11.5951 4.48335C11.1317 4.90839 10.8387 5.51652 10.8387 6.19355C10.8387 6.8791 11.1391 7.49419 11.6129 7.92V13.0796ZM11.6129 6.19355C11.6129 5.33961 12.3074 4.64516 13.1613 4.64516C14.0152 4.64516 14.7097 5.33961 14.7097 6.19355H15.4839C15.4839 4.92271 14.4581 3.88877 13.1911 3.87252C13.1725 3.744 13.1613 3.61432 13.1613 3.48387C13.1613 1.99006 14.3772 0.774194 15.871 0.774194C16.8755 0.774194 17.7747 1.32271 18.2458 2.18942C17.6601 2.63884 17.2382 3.29342 17.0911 4.05445C16.5983 4.31381 16.2581 4.82477 16.2581 5.41935H17.0323C17.0323 4.99239 17.3795 4.64516 17.8065 4.64516C18.2334 4.64516 18.5806 4.99239 18.5806 5.41935H19.3548C19.3548 4.61071 18.7301 3.95265 17.9388 3.88452C18.2566 2.96826 19.1234 2.32258 20.129 2.32258C21.4099 2.32258 22.4516 3.36426 22.4516 4.64516C22.4516 4.65832 22.4497 4.6711 22.4497 4.68426C22.325 4.65871 22.1965 4.64516 22.0645 4.64516C20.9973 4.64516 20.129 5.51342 20.129 6.58065V6.96774H20.9032V6.58065C20.9032 5.94039 21.4243 5.41935 22.0645 5.41935C22.7048 5.41935 23.2258 5.94039 23.2258 6.58065C23.2258 7.2209 22.7048 7.74194 22.0645 7.74194H15.4839H15.0968H13.1613C12.3074 7.74194 11.6129 7.04748 11.6129 6.19355ZM23.2258 19.0564C22.7493 19.2101 22.3572 19.5693 22.164 20.035C21.965 20.5154 21.9825 21.0608 22.2046 21.5257L21.5284 22.2019C21.0825 21.9735 20.5506 21.9507 20.0837 22.1439C19.6045 22.3428 19.2317 22.7404 19.0606 23.2258H18.1026C17.9404 22.745 17.5746 22.3498 17.1019 22.1539C16.6289 21.9577 16.0901 21.9782 15.6337 22.2031L14.9563 21.5257C15.1785 21.0608 15.1959 20.5154 14.9969 20.035C14.8037 19.5693 14.4116 19.2101 13.9351 19.0564V18.1045C14.4116 17.9508 14.8037 17.5916 14.9969 17.1259C15.1959 16.6455 15.1785 16.1001 14.9563 15.6352L15.6337 14.9578C16.0908 15.1827 16.6289 15.2028 17.1019 15.007C17.5746 14.8111 17.9404 14.4163 18.1026 13.9351H19.0606C19.2314 14.4209 19.6041 14.8181 20.0837 15.017C20.5502 15.2102 21.0821 15.187 21.5284 14.959L22.2046 15.6352C21.9825 16.1001 21.965 16.6455 22.164 17.1259C22.3572 17.5916 22.7493 17.9508 23.2258 18.1045V19.0564Z" fill="#7B46BE"/>
</svg>
