<svg width="21" height="33" viewBox="0 0 21 33" fill="none" xmlns="http://www.w3.org/2000/svg">
<circle cx="10.5" cy="18.5" r="3" stroke="#7B46BE"/>
<path d="M16.5 30.5353C16.5 31.5384 16.306 32.0026 16.0919 32.2222C15.8918 32.4275 15.5659 32.527 14.978 32.4937C14.5018 32.4668 13.9523 32.3608 13.3039 32.2358C13.1474 32.2056 12.9851 32.1744 12.8168 32.1428C11.9728 31.9847 11.0147 31.8294 10 31.8294C8.98533 31.8294 8.02725 31.9847 7.1832 32.1428C7.01485 32.1744 6.85262 32.2056 6.69615 32.2358C6.04774 32.3608 5.4982 32.4668 5.02201 32.4937C4.43407 32.527 4.10824 32.4275 3.90808 32.2222C3.69398 32.0026 3.5 31.5384 3.5 30.5353C3.5 26.6145 6.44421 23.5 10 23.5C13.5558 23.5 16.5 26.6145 16.5 30.5353Z" stroke="#7B46BE"/>
<path d="M10.3536 0.646446C10.1583 0.451184 9.84171 0.451184 9.64645 0.646446L6.46447 3.82843C6.2692 4.02369 6.2692 4.34027 6.46447 4.53553C6.65973 4.7308 6.97631 4.7308 7.17157 4.53553L10 1.70711L12.8284 4.53553C13.0237 4.7308 13.3403 4.7308 13.5355 4.53553C13.7308 4.34027 13.7308 4.02369 13.5355 3.82843L10.3536 0.646446ZM10.5 10L10.5 1L9.5 1L9.5 10L10.5 10Z" fill="#7B46BE"/>
<path d="M4.35355 6.64645C4.15829 6.45118 3.84171 6.45118 3.64645 6.64645L0.464466 9.82843C0.269203 10.0237 0.269203 10.3403 0.464466 10.5355C0.659728 10.7308 0.97631 10.7308 1.17157 10.5355L4 7.70711L6.82843 10.5355C7.02369 10.7308 7.34027 10.7308 7.53553 10.5355C7.7308 10.3403 7.7308 10.0237 7.53553 9.82843L4.35355 6.64645ZM4.5 19L4.5 7L3.5 7L3.5 19L4.5 19Z" fill="#7B46BE"/>
<path d="M17.3536 6.64645C17.1583 6.45118 16.8417 6.45118 16.6464 6.64645L13.4645 9.82843C13.2692 10.0237 13.2692 10.3403 13.4645 10.5355C13.6597 10.7308 13.9763 10.7308 14.1716 10.5355L17 7.70711L19.8284 10.5355C20.0237 10.7308 20.3403 10.7308 20.5355 10.5355C20.7308 10.3403 20.7308 10.0237 20.5355 9.82843L17.3536 6.64645ZM17.5 19L17.5 7L16.5 7L16.5 19L17.5 19Z" fill="#7B46BE"/>
</svg>
