<svg width="56" height="72" viewBox="0 0 56 72" fill="none" xmlns="http://www.w3.org/2000/svg">
<path d="M19.5741 38.9367C16.7124 36.9037 14.8046 34.5488 13.6808 31.5917C13.4632 31.0134 12.9117 31.0284 12.4557 30.8882C10.6105 30.3189 9.43303 29.0997 9.24524 27.183C9.05744 25.2663 10.0262 23.8205 11.785 23.0366C12.563 22.6908 12.6792 22.1751 12.7776 21.4239C13.3738 16.8273 13.0757 12.2099 13.0995 7.60445C13.0693 6.83752 13.2309 6.07517 13.5697 5.38651C13.9086 4.69785 14.414 4.10465 15.0401 3.66072C19.1895 0.471154 24.0066 -0.181662 29.0026 0.038924C32.0879 0.173064 35.1194 0.736455 37.8798 2.28056C40.2436 3.60408 41.7102 5.26146 41.5463 8.31092C41.3133 12.7745 41.4129 17.2493 41.8443 21.6981C41.9368 22.661 42.1961 23.3257 43.1828 23.7848C45.0578 24.6403 45.9222 26.3185 45.6211 28.1101C45.4832 29.0035 45.0575 29.8275 44.4087 30.4569C43.7599 31.0864 42.9234 31.4869 42.0262 31.5977C41.3167 31.705 40.8606 31.8958 40.5626 32.6082C39.6206 34.7992 38.0854 36.543 36.282 38.0722C36.0077 38.3017 35.4444 38.4031 35.6083 38.9098C35.7305 39.2795 36.2045 39.2079 36.5234 39.3033C40.4761 40.4808 44.1277 42.2365 47.1951 45.0326C50.8645 48.3772 53.2165 52.3775 53.1569 57.5256C53.1241 60.8045 53.1867 64.0657 53.136 67.3357C53.1181 68.4565 53.294 69.1809 54.6533 69.0438C54.8149 69.0124 54.9814 69.0168 55.1412 69.0567C55.3009 69.0966 55.45 69.1711 55.5778 69.2748C55.7057 69.3785 55.8093 69.509 55.8813 69.657C55.9533 69.8051 55.992 69.9672 55.9947 70.1318C56.0603 70.9217 55.5118 71.3033 54.8023 71.4106C54.2099 71.4931 53.6118 71.529 53.0138 71.5179C38.308 71.5179 23.6022 71.5129 8.89647 71.503C8.25229 71.5121 7.60839 71.4702 6.97081 71.3778C6.32396 71.2735 5.8649 70.871 5.89471 70.1616C5.92452 69.4521 6.39252 69.1004 7.0662 69.0467C7.60872 69.005 8.15721 69.0169 8.70271 69.0169C21.9657 69.0169 35.2277 69.0169 48.4888 69.0169C50.6082 69.0169 50.635 69.0169 50.635 66.8707C50.635 63.2459 50.7155 59.6152 50.5396 55.9964C50.3638 52.306 48.3367 49.492 45.7136 47.0537C45.2038 46.5797 44.8193 46.7556 44.5212 47.2653C43.6877 48.6192 43.0012 50.0581 42.4733 51.5578C42.1275 52.5683 42.8817 53.1138 43.3408 53.7905C44.063 54.8854 44.3518 56.2099 44.1509 57.5061C43.95 58.8022 43.2737 59.9772 42.2539 60.802C41.2341 61.6269 39.9438 62.0426 38.6342 61.9681C37.3247 61.8936 36.0898 61.3343 35.1701 60.3991C32.4366 57.4659 33.942 52.4849 37.9066 51.7545C39.5043 51.4564 40.3301 50.8245 40.7474 49.3013C41.1021 48.0105 41.8235 46.845 42.5955 45.748C43.0218 45.1518 42.9115 44.7852 42.2974 44.4424C39.964 43.1071 37.4558 42.1038 34.8452 41.4615C33.9509 41.2469 33.7363 41.7596 33.4621 42.3945C31.9716 45.757 30.4812 49.1075 28.9907 52.467C28.6926 53.1466 28.4661 53.9395 27.536 53.9574C26.606 53.9753 26.3437 53.1884 26.0456 52.5117C24.5134 49.1194 22.9604 45.7331 21.4848 42.314C21.1122 41.4555 20.6859 41.223 19.7887 41.4496C17.8697 41.9637 15.9955 42.6327 14.1846 43.4498C13.335 43.8164 13.0548 44.2755 13.5377 45.1668C14.2531 46.4903 14.5334 47.9718 14.8434 49.4265C15.0133 50.2075 15.3352 50.6456 16.1728 50.75C19.6784 51.1762 21.4282 53.4089 22.1674 56.6671C22.6712 58.8938 23.2316 61.1086 23.7205 63.3383C23.9202 64.2564 22.0303 66.4653 20.8797 66.665C19.7291 66.8647 18.9868 66.2715 18.5993 65.2103C18.173 64.0358 18.5993 62.8256 19.8125 62.611C20.9453 62.3993 20.8737 61.8717 20.674 61.0669C20.2895 59.5257 19.9735 57.9667 19.5472 56.4375C18.8765 54.0319 16.93 52.8068 14.7271 53.3314C12.2321 53.9276 11.0159 55.7817 11.4809 58.3393C11.6598 59.3171 11.8953 60.2829 12.1397 61.2427C12.4378 62.4709 12.3573 63.9703 14.5244 63.5142C15.5707 63.2936 16.4113 64.7691 16.2384 66.0152C16.0924 67.0942 15.1444 67.7799 13.97 67.6576C13.5288 67.6099 13.0757 67.4609 12.6524 67.5354C11.5882 67.7173 11.0189 67.2165 10.7983 66.2775C10.1514 63.5261 9.40024 60.7837 8.97398 57.9936C8.59242 55.5045 9.594 53.3851 11.7194 51.9602C12.4676 51.4594 12.6673 50.9855 12.4795 50.1329C12.205 48.8713 11.8465 47.6295 11.4064 46.4158C11.156 45.7301 10.8341 45.4201 10.1157 45.9954C6.51175 48.8899 4.04953 52.4282 3.94818 57.2155C3.87366 60.742 3.94818 64.2684 3.94818 67.7977C3.9375 68.3916 4.06614 68.9796 4.32377 69.5147C4.86033 70.6057 4.34166 71.2407 3.25959 71.4374C2.6673 71.5242 2.06654 71.5372 1.47105 71.4762C0.874872 71.4315 0.278693 71.2407 0.0640681 70.5819C-0.150557 69.9231 0.195228 69.3895 0.785446 69.1272C1.51278 68.7993 1.4174 68.1882 1.4174 67.607C1.4174 64.8258 1.52471 62.0386 1.4174 59.2604C1.09546 51.8082 4.63379 46.5737 10.6165 42.6688C13.2337 40.91 16.1669 39.8429 19.5741 38.9367ZM39.3434 24.0829C39.3434 23.0425 39.3642 21.9962 39.3434 20.9589C39.2838 18.4877 39.2748 18.4877 36.8722 18.4877C35.6798 18.4877 34.4875 18.5175 33.2951 18.4877C32.45 18.4568 31.6192 18.7121 30.9372 19.2121C27.172 21.8297 22.7569 23.3564 18.179 23.6238C15.2398 23.8176 15.2428 23.8593 15.2756 26.7806C15.3164 29.3347 16.1667 31.81 17.7041 33.8501C19.2415 35.8901 21.3866 37.3897 23.8306 38.1327C26.2746 38.8758 28.8914 38.8241 31.3042 37.9851C33.7169 37.146 35.8011 35.5629 37.2567 33.4637C39.2867 30.5991 39.5163 27.4036 39.3434 24.0829ZM27.4198 15.9748C30.7912 15.9748 34.1656 15.939 37.537 15.9927C38.6429 16.0106 39.0274 15.6231 38.9946 14.5261C38.932 12.4931 38.8336 10.4452 39.0155 8.43015C39.2062 6.34353 38.2106 5.18992 36.4936 4.37613C31.6884 2.0868 26.7073 2.0868 21.6577 3.16887C19.7981 3.55372 18.0594 4.3832 16.5902 5.58638C16.3225 5.79846 16.1039 6.06603 15.9495 6.37067C15.7952 6.67531 15.7086 7.00978 15.6959 7.35107C15.4872 9.68213 15.7794 12.0102 15.6154 14.3264C15.529 15.5515 15.839 16.0225 17.1267 15.9987C20.5637 15.9301 23.9858 15.9748 27.4198 15.9748ZM27.5331 49.7096L31.593 40.5404C29.3276 41.1784 26.9475 41.2976 24.6297 40.8892C23.9828 40.7729 23.6519 41.0501 23.956 41.7328C25.0708 44.2635 26.2066 46.7824 27.5211 49.7096H27.5331ZM39.0453 59.5615C39.4163 59.5772 39.7866 59.5176 40.1339 59.3864C40.4813 59.2552 40.7985 59.055 41.0664 58.7979C41.3343 58.5409 41.5474 58.2322 41.6929 57.8906C41.8384 57.549 41.9132 57.1815 41.9129 56.8101C41.8831 55.3823 40.5566 54.0379 39.1556 54.0111C38.783 54.0031 38.4128 54.0713 38.0676 54.2115C37.7224 54.3517 37.4094 54.5609 37.1479 54.8263C36.8864 55.0918 36.6818 55.4078 36.5468 55.7551C36.4117 56.1024 36.349 56.4735 36.3625 56.8459C36.3625 58.4944 37.4117 59.5496 39.0453 59.5615ZM26.7908 18.5056C23.4194 18.5056 20.051 18.5205 16.6796 18.5056C15.5558 18.5056 15.4217 19.2538 15.3293 20.0795C15.2368 20.9052 15.7048 21.1228 16.4083 21.1347C20.0457 21.2354 23.6397 20.3253 26.7908 18.5056V18.5056Z" fill="#7B46BE"/>
</svg>
