<svg width="25" height="23" viewBox="0 0 25 23" fill="none" xmlns="http://www.w3.org/2000/svg">
<path d="M24.6007 12.5031C24.6084 12.3128 24.5617 12.1243 24.466 11.9597C24.3703 11.7951 24.2296 11.6612 24.0604 11.5738L3.29341 0.769568C3.11212 0.678399 2.90738 0.644541 2.7064 0.672489C2.50541 0.700438 2.31768 0.788871 2.16814 0.926043C2.01861 1.06321 1.91434 1.24263 1.86919 1.44047C1.82404 1.6383 1.84015 1.84519 1.91537 2.03366L5.19446 10.6824L14.167 11.0552L14.0811 13.0474L5.0809 12.6592L1.07618 21.0009C0.98916 21.1813 0.958308 21.3837 0.987622 21.5818C1.01694 21.7799 1.10506 21.9647 1.24059 22.1121C1.38025 22.2583 1.56091 22.3586 1.75876 22.4C1.9566 22.4414 2.16235 22.4218 2.34886 22.3439L23.9689 13.3676C24.1453 13.2982 24.2984 13.1801 24.4103 13.027C24.5221 12.874 24.5882 12.6922 24.6007 12.5031Z" fill="white"/>
</svg>
