<svg width="52" height="16" viewBox="0 0 52 16" fill="none" xmlns="http://www.w3.org/2000/svg">
<path d="M52 2C52 1.46957 51.7893 0.96086 51.4142 0.585787C51.0391 0.210714 50.5304 0 50 0H2C1.46957 0 0.960857 0.210714 0.585785 0.585787C0.210712 0.96086 0 1.46957 0 2C0 2.53043 0.210712 3.03914 0.585785 3.41421C0.960857 3.78929 1.46957 4 2 4H50C50.5304 4 51.0391 3.78929 51.4142 3.41421C51.7893 3.03914 52 2.53043 52 2Z" fill="#1C2D5C"/>
<path d="M18 12C18.5304 12 19.0391 12.2107 19.4142 12.5858C19.7893 12.9609 20 13.4696 20 14C20 14.5304 19.7893 15.0391 19.4142 15.4142C19.0391 15.7893 18.5304 16 18 16H2C1.46957 16 0.960857 15.7893 0.585785 15.4142C0.210712 15.0391 0 14.5304 0 14C0 13.4696 0.210712 12.9609 0.585785 12.5858C0.960857 12.2107 1.46957 12 2 12H18Z" fill="#1C2D5C"/>
</svg>
