<svg width="60" height="43" viewBox="0 0 60 43" fill="none" xmlns="http://www.w3.org/2000/svg">
<path fill-rule="evenodd" clip-rule="evenodd" d="M0 38.2591V4.46049C0 1.99735 1.99882 0 4.46049 0H55.5366C57.9953 0 60 1.9944 60 4.46049V38.2591C60 40.7208 57.9982 42.7196 55.5366 42.7196H4.46049C1.99882 42.7196 0 40.7208 0 38.2591ZM57.1757 38.2591V4.46049C57.1757 3.55985 56.4431 2.82282 55.5366 2.82282H4.46049C3.5569 2.82282 2.82282 3.5569 2.82282 4.46049V38.2591C2.82282 39.1613 3.5569 39.8953 4.46049 39.8953H55.5366C56.4402 39.8953 57.1757 39.1613 57.1757 38.2591Z" fill="white"/>
<path fill-rule="evenodd" clip-rule="evenodd" d="M4.9574 5.65645C4.9574 4.91057 5.56618 4.30179 6.31353 4.30179C7.0594 4.30179 7.66524 4.91057 7.66524 5.65645C7.66524 6.40085 7.0594 7.00816 6.31353 7.00816C5.56618 7.00816 4.9574 6.40085 4.9574 5.65645ZM8.78994 5.65645C8.78994 4.91057 9.39726 4.30179 10.1417 4.30179C10.889 4.30179 11.4978 4.91057 11.4978 5.65645C11.4978 6.40085 10.889 7.00816 10.1417 7.00816C9.39726 7.00816 8.78994 6.40085 8.78994 5.65645ZM12.621 5.65645C12.621 4.91057 13.2298 4.30179 13.9727 4.30179C14.7201 4.30179 15.3274 4.91057 15.3274 5.65645C15.3274 6.40085 14.7201 7.00816 13.9727 7.00816C13.2298 7.00816 12.621 6.40085 12.621 5.65645Z" fill="#3DBFAB"/>
<path fill-rule="evenodd" clip-rule="evenodd" d="M36.0511 35.8395V33.537H38.361V35.8395H36.0511ZM39.9942 35.8395V33.537H42.3011V35.8395H39.9942ZM43.9403 35.8395V33.537H46.2442V35.8395H43.9403ZM47.8834 35.8395V33.537H50.1917V35.8395H47.8834ZM36.0511 32.1617V29.8578H38.361V32.1617H36.0511ZM39.9942 32.1617V29.8578H42.3011V32.1617H39.9942ZM43.9403 32.1617V29.8578H46.2442V32.1617H43.9403ZM47.8834 32.1617V29.8578H50.1917V32.1617H47.8834Z" fill="white"/>
<path fill-rule="evenodd" clip-rule="evenodd" d="M36.0511 12.641C36.0511 10.4122 37.8745 8.61093 40.1092 8.61093H47.2318C49.4621 8.61093 51.287 10.4122 51.287 12.641C51.287 14.8713 49.4621 16.6681 47.2318 16.6681H40.1092C37.8745 16.6681 36.0511 14.8713 36.0511 12.641ZM49.7186 12.641C49.7186 11.2922 48.6056 10.1793 47.2318 10.1793H42.4013C43.0691 10.7601 43.4921 11.618 43.4921 12.5688C43.4921 13.605 42.9939 14.5278 42.2259 15.0997H47.2318C48.6056 15.0997 49.7186 13.9898 49.7186 12.641Z" fill="#3DBFAB"/>
<path fill-rule="evenodd" clip-rule="evenodd" d="M36.0511 22.5658C36.0511 20.337 37.8745 18.5357 40.1092 18.5357H47.2303C49.4621 18.5357 51.2869 20.337 51.2869 22.5658C51.2869 24.7975 49.4621 26.5944 47.2303 26.5944H40.1092C37.8745 26.5944 36.0511 24.7975 36.0511 22.5658ZM43.8474 22.4935C43.8474 21.5443 44.2675 20.6849 44.9352 20.1041H40.1092C38.7309 20.1041 37.621 21.217 37.621 22.5658C37.621 23.9145 38.7309 25.0245 40.1092 25.0245H45.1107C44.3427 24.4526 43.8474 23.5298 43.8474 22.4935Z" fill="#3DBFAB"/>
<path fill-rule="evenodd" clip-rule="evenodd" d="M6.59036 35.835V15.21H10.8592V35.835H6.59036ZM12.9701 35.8321V27.4093H17.2404V35.8321H12.9701ZM19.3513 35.8276V19.3197H23.6201V35.8276H19.3513ZM25.731 35.8276V26.0576H29.9984V35.8276H25.731Z" fill="#3DBFAB"/>
</svg>
