<svg width="78" height="79" viewBox="0 0 78 79" fill="none" xmlns="http://www.w3.org/2000/svg">
<rect y="0.238037" width="77.8006" height="77.8006" rx="17.1425" fill="#5F3595"/>
<path d="M26.7242 54.3387C24.9951 54.3387 23.4493 54.0898 22.0869 53.5921C20.7246 53.0943 19.6373 52.4786 18.8251 51.745C18.0392 50.9852 17.6462 50.2255 17.6462 49.4657C17.6462 49.0989 17.7379 48.7059 17.9213 48.2867C18.1309 47.8413 18.406 47.4745 18.7465 47.1864C19.0871 46.872 19.467 46.7148 19.8862 46.7148C20.2792 46.7148 20.6591 46.872 21.0259 47.1864C21.4189 47.4745 21.8511 47.8282 22.3227 48.2474C22.7943 48.6404 23.3707 48.9941 24.0519 49.3085C24.7331 49.5967 25.5714 49.7408 26.567 49.7408C27.746 49.7408 28.7677 49.4657 29.6323 48.9155C30.5231 48.3653 30.9685 47.5007 30.9685 46.3218C30.9685 45.3262 30.6672 44.5271 30.0646 43.9246C29.462 43.2958 28.676 42.7587 27.7067 42.3133C26.7635 41.8417 25.7548 41.3701 24.6807 40.8985C23.6065 40.427 22.5847 39.8768 21.6154 39.248C20.646 38.593 19.86 37.7677 19.2574 36.7722C18.6548 35.7504 18.3536 34.4666 18.3536 32.9209C18.3536 31.4537 18.6286 30.2224 19.1788 29.2268C19.7552 28.205 20.5019 27.3929 21.4189 26.7903C22.362 26.1877 23.3969 25.7554 24.5235 25.4934C25.65 25.2052 26.7766 25.0611 27.9032 25.0611C28.4795 25.0611 29.1869 25.1135 30.0253 25.2183C30.8637 25.2969 31.6889 25.4541 32.5011 25.6899C33.3395 25.8995 34.0207 26.2139 34.5447 26.6331C35.0948 27.0523 35.3699 27.5762 35.3699 28.205C35.3699 28.5194 35.2913 28.8993 35.1341 29.3447C35.0031 29.7639 34.7805 30.1307 34.4661 30.4451C34.1779 30.7594 33.798 30.9166 33.3264 30.9166C32.9072 30.9166 32.488 30.7987 32.0688 30.563C31.6759 30.301 31.1519 30.0521 30.4969 29.8163C29.8681 29.5543 29.0035 29.4233 27.9032 29.4233C26.4884 29.4233 25.388 29.6984 24.6021 30.2486C23.8423 30.7725 23.4624 31.5061 23.4624 32.4493C23.4624 33.2615 23.7637 33.9296 24.3663 34.4535C24.9689 34.9513 25.7548 35.4098 26.7242 35.829C27.6936 36.222 28.7153 36.6543 29.7895 37.1259C30.8637 37.5974 31.8723 38.1869 32.8155 38.8943C33.7849 39.6017 34.5709 40.5056 35.1734 41.6059C35.776 42.7063 36.0773 44.1079 36.0773 45.8109C36.0773 47.671 35.6712 49.243 34.8591 50.5268C34.0731 51.7843 32.9727 52.7406 31.558 53.3956C30.1432 54.0243 28.5319 54.3387 26.7242 54.3387ZM47.493 53.985C46.838 53.985 46.2485 53.8541 45.7246 53.5921C45.2006 53.3039 44.9386 52.8847 44.9386 52.3345V29.8556H39.1617C38.6639 29.8556 38.2709 29.6329 37.9827 29.1875C37.6945 28.7159 37.5504 28.1657 37.5504 27.5369C37.5504 26.9868 37.6814 26.4759 37.9434 26.0043C38.2054 25.5065 38.6115 25.2576 39.1617 25.2576H55.7851C56.3352 25.2576 56.7413 25.5065 57.0033 26.0043C57.2653 26.4759 57.3963 26.9868 57.3963 27.5369C57.3963 28.1657 57.2522 28.7159 56.964 29.1875C56.702 29.6329 56.309 29.8556 55.7851 29.8556H50.0474V52.3345C50.0474 52.8847 49.7723 53.3039 49.2222 53.5921C48.6982 53.8541 48.1218 53.985 47.493 53.985Z" fill="white"/>
<path d="M58.5357 39.596C53.7101 46.7035 47.1763 52.7444 38.7315 54.9745C38.1138 55.1394 37.8436 54.1697 38.4709 54.0146C46.6648 51.8523 53.0056 45.9956 57.6864 39.1015C58.0339 38.5682 58.8928 39.0627 58.5357 39.596Z" fill="#1D1D1B"/>
<path d="M36.4828 54.8097C36.4828 55.5078 37.0425 56.0702 37.7374 56.0702C38.4323 56.0702 38.9921 55.5078 38.9921 54.8097C38.9921 54.1116 38.4323 53.5492 37.7374 53.5492C37.0425 53.5492 36.4828 54.1116 36.4828 54.8097Z" fill="#1D1D1B"/>
<path d="M57.3197 48.7027C60.715 48.7027 63.4675 45.9373 63.4675 42.526C63.4675 39.1148 60.715 36.3494 57.3197 36.3494C53.9244 36.3494 51.1719 39.1148 51.1719 42.526C51.1719 45.9373 53.9244 48.7027 57.3197 48.7027Z" fill="#45919F"/>
<path d="M53.3241 42.6698C53.3241 44.8903 55.1096 46.6841 57.3197 46.6841C59.5298 46.6841 61.3153 44.8903 61.3153 42.6698C61.3153 40.4493 59.5298 38.6555 57.3197 38.6555C55.1192 38.6555 53.3241 40.4493 53.3241 42.6698Z" fill="#1D1D1B"/>
<path d="M62.1966 22.4131L63.0282 21.6948L62.1966 22.4131ZM46.4129 23.2417C46.0209 23.705 46.0787 24.3983 46.542 24.7904C47.0053 25.1824 47.6987 25.1246 48.0907 24.6613L46.4129 23.2417ZM61.6004 39.0221C62.2279 37.9763 64.0029 35.3223 64.9194 32.1661C65.8448 28.9791 65.9515 25.0797 63.0282 21.6948L61.3649 23.1313C63.621 25.7436 63.6178 28.7672 62.8088 31.5533C61.9909 34.3702 60.407 36.7395 59.7158 37.8913L61.6004 39.0221ZM63.0282 21.6948C60.5676 18.8457 56.94 18.5494 53.8318 19.2238C50.7418 19.8943 47.8127 21.5874 46.4129 23.2417L48.0907 24.6613C49.1084 23.4585 51.5639 21.9648 54.2979 21.3716C57.0137 20.7823 59.6497 21.1454 61.3649 23.1313L63.0282 21.6948Z" fill="#45919F"/>
<line x1="44.1749" y1="24.1936" x2="50.3287" y2="24.1936" stroke="#45919F" stroke-width="2.19776" stroke-linecap="round"/>
</svg>
