<svg width="72" height="66" viewBox="0 0 72 66" fill="none" xmlns="http://www.w3.org/2000/svg">
<path d="M36.0286 65.2581C30.9179 65.3647 25.8549 64.9187 20.8958 63.6312C16.1273 62.3942 15.3812 61.3311 15.7963 56.4645C15.9019 55.3961 16.0847 54.3368 16.3433 53.2949C16.9912 50.5516 18.7051 48.8069 21.4203 48.0328C22.3628 47.7523 23.2912 47.4409 24.2253 47.1772C26.0681 46.6639 27.5716 45.7972 28.1887 43.8113C28.2755 43.4936 28.4253 43.1965 28.6291 42.9378C28.8329 42.679 29.0866 42.4639 29.3752 42.305C30.3401 41.8001 30.1858 41.0652 29.5435 40.4986C27.7062 38.8745 26.7385 36.5857 24.9882 34.8634C23.6502 33.5423 23.8662 31.6237 24.4777 29.9575C24.8409 29.0524 25.0155 28.0827 24.991 27.1077C24.9338 25.9857 25.0396 24.8614 25.3052 23.7698C26.0345 20.7264 27.8016 18.5105 30.8141 17.582C34.5475 16.432 38.2641 16.3506 41.7535 18.5049C41.9935 18.6462 42.2509 18.7556 42.5193 18.8302C45.6692 19.7783 47.1026 21.6043 47.2681 24.9226C47.3691 26.9478 47.1531 28.9506 47.7421 30.9954C48.2526 32.7681 47.6411 34.3838 46.09 35.8536C44.609 37.2561 43.6777 39.2588 42.2051 40.7791C41.832 41.1634 41.7619 41.8338 42.3285 42.1171C43.4084 42.6612 43.7815 43.6766 44.2079 44.6415C44.388 45.0986 44.6655 45.511 45.021 45.85C45.3766 46.1891 45.8016 46.4467 46.2667 46.605C47.1923 46.9304 48.0983 47.3259 49.0436 47.5727C53.756 48.7929 55.6101 50.1673 56.2243 56.8291C56.2664 57.292 56.2552 57.7632 56.2608 58.2316C56.2945 61.2329 55.8625 61.9286 53.0042 63.0001C48.7968 64.5821 44.3677 64.9271 39.9387 65.244C38.6512 65.3366 37.3385 65.2581 36.0286 65.2581ZM26.5253 31.8397C26.5253 32.6812 26.4861 33.4722 27.1761 33.8705C27.925 34.3052 28.2251 35.0093 28.6403 35.6825C30.0428 37.9265 31.7678 39.8675 34.1492 41.1409C34.7187 41.471 35.3657 41.6433 36.0238 41.6404C36.682 41.6374 37.3274 41.4592 37.8939 41.1241C40.3847 39.7525 42.1939 37.7161 43.5908 35.2786C43.7803 34.8531 44.0552 34.4712 44.3986 34.1566C45.9974 32.8999 45.9525 30.914 44.2892 29.7247C43.1672 28.9337 42.0649 28.1371 41.3552 26.9534C40.8251 26.0698 40.2809 26.0642 39.3917 26.4401C37.3862 27.304 35.2628 27.6715 33.1002 27.2087C31.7622 26.9282 30.6795 26.9927 29.8632 28.2914C29.4397 28.9618 28.6515 29.3096 27.9334 29.6518C26.9292 30.1174 26.3935 30.8383 26.5253 31.8397ZM31.8548 62.9384H33.2573C34.713 62.9384 34.9599 62.641 34.814 61.1937C34.7383 60.4475 34.2727 59.9146 33.908 59.3256C31.9688 56.1896 30.0166 53.0574 28.0512 49.9289C27.8296 49.5811 27.5491 48.6835 27.0162 49.4605C26.3851 50.3861 26.3122 51.5698 26.2925 52.6974C26.2757 53.5585 27.0835 53.6483 27.5856 54.0073C29.3752 55.2808 29.7987 57.55 28.5505 59.3087C28.2563 59.7152 27.884 60.059 27.4553 60.3199C27.0267 60.5808 26.5504 60.7537 26.0542 60.8284C25.558 60.9031 25.0518 60.8781 24.5654 60.7549C24.0789 60.6317 23.6219 60.4128 23.2211 60.111C21.5381 58.7982 21.0893 56.2345 22.6601 54.8011C24.0934 53.494 23.9476 51.9204 24.2477 50.3721C24.3122 50.0495 24.4132 49.7382 23.8522 49.7213C22.0879 49.6737 19.3867 51.4688 18.764 53.1743C18.1806 54.7787 18.203 56.4645 18.0403 58.1391C17.8916 59.7519 18.5424 60.5065 20.0038 60.9777C23.9616 62.2483 28.0512 62.599 31.8632 62.9384H31.8548ZM40.0817 62.9384C41.1196 62.8486 42.4716 62.7757 43.8152 62.6102C46.7828 62.2511 49.7421 61.8388 52.5751 60.8094C53.526 60.4616 54.014 59.8978 53.9495 58.8263C53.871 57.4743 53.8738 56.1251 53.6382 54.7815C53.1641 52.0663 51.9832 50.7396 49.3241 50.0916C48.9539 50.0018 48.4546 49.6428 48.2526 50.2487C48.0983 50.7031 48.4602 51.0369 48.8613 51.2332C49.7196 51.6512 50.505 52.1757 50.9173 53.0593C51.6199 54.5385 52.0847 56.1194 52.2946 57.7436C52.3356 58.1643 52.2868 58.589 52.1514 58.9895C52.016 59.39 51.797 59.7571 51.509 60.0666C51.221 60.3761 50.8705 60.6208 50.4808 60.7847C50.0911 60.9485 49.671 61.0277 49.2484 61.017C48.5864 61.017 48.0142 60.7982 47.8627 60.0857C47.8207 59.9362 47.813 59.779 47.8404 59.6261C47.8677 59.4732 47.9292 59.3285 48.0204 59.2027C48.1116 59.077 48.2301 58.9735 48.367 58.9C48.5039 58.8266 48.6556 58.7851 48.8108 58.7786C50.0282 58.6103 50.0955 57.9371 49.8038 56.975C49.5541 56.1728 49.3438 55.3565 49.0745 54.5599C48.8052 53.7633 48.233 53.2219 47.3073 53.236C46.9047 53.2263 46.5106 53.3525 46.1885 53.5942C45.8664 53.8359 45.635 54.1791 45.5318 54.5683C45.2513 55.4098 45.0381 56.2738 44.7576 57.1152C44.4771 57.9567 44.5781 58.5738 45.6328 58.7197C46.3705 58.8207 46.867 59.2302 46.7183 60.0492C46.5696 60.8683 45.9189 61.0198 45.2261 61.0142C44.7894 61.0225 44.3565 60.9316 43.9601 60.7483C43.5637 60.5649 43.2141 60.2939 42.9378 59.9557C42.6614 59.6175 42.4655 59.2209 42.3648 58.7959C42.2642 58.3709 42.2613 57.9286 42.3566 57.5023C42.8867 55.1742 43.1392 52.703 45.5402 51.2108C46.4574 50.6498 45.4869 49.7887 45.1335 49.1716C44.853 48.6639 44.4855 49.0538 44.292 49.3763C41.9891 53.0621 39.6077 56.7001 37.4563 60.4728C36.7186 61.7631 36.8588 63.2525 38.9345 62.9412C39.3193 62.9165 39.7052 62.9146 40.0902 62.9356L40.0817 62.9384ZM44.7015 27.0348C45.543 23.8455 44.536 21.9998 41.5375 21.0882C41.3539 21.0538 41.1787 20.9843 41.0214 20.8835C38.7774 18.92 36.0791 19.1163 33.4199 19.3239C29.6893 19.6044 27.1312 22.5945 27.3472 26.2438C27.364 26.5243 27.2546 26.8524 27.5856 26.9843C27.9166 27.1161 28.1073 26.8468 28.2925 26.6477C28.5024 26.461 28.6698 26.2314 28.7833 25.9745C29.2433 24.4542 30.2026 24.3224 31.6192 24.6533C34.6597 25.363 37.6414 25.377 40.2809 23.2509C41.257 22.4711 41.9106 23.0321 42.3285 24.011C42.8502 25.2143 43.5262 26.2942 44.7099 27.0179L44.7015 27.0348ZM36.0622 45.8056C37.2315 45.5495 38.3281 45.0338 39.2711 44.2965C39.429 44.19 39.5428 44.0297 39.5913 43.8455C39.6399 43.6612 39.6197 43.4657 39.5348 43.2952C39.3048 42.8828 38.9598 43.1717 38.6933 43.2952C37.8683 43.733 36.9485 43.962 36.0145 43.962C35.0805 43.962 34.1608 43.733 33.3358 43.2952C33.0553 43.1605 32.7187 42.8716 32.4943 43.2643C32.4041 43.4324 32.3811 43.6285 32.43 43.8129C32.479 43.9972 32.5962 44.1561 32.758 44.2573C33.7178 45.0351 34.8563 45.5615 36.0706 45.7888L36.0622 45.8056ZM30.6571 49.5194C30.8169 49.438 30.9375 49.4184 30.974 49.3539C31.535 48.6779 32.326 48.0664 32.556 47.2894C32.7299 46.6976 31.6865 46.476 31.1816 46.1085C30.8197 45.8477 30.399 45.1801 29.8941 45.7467C29.4537 46.2404 28.96 46.8687 29.3527 47.6288C29.7174 48.2964 30.0428 49.0257 30.6655 49.5026L30.6571 49.5194ZM41.689 45.4802C40.9541 45.9935 40.0593 46.4059 39.4843 47.0875C39.0467 47.6092 39.9499 47.9486 40.208 48.3974C40.4155 48.7065 40.6512 48.9957 40.912 49.2613C41.0719 49.4465 41.3187 49.6204 41.4954 49.3791C42.0396 48.6442 42.8194 47.9767 42.7128 46.9697C42.7024 46.6485 42.6015 46.3368 42.4219 46.0704C42.2423 45.8039 41.9912 45.5936 41.6974 45.4634L41.689 45.4802ZM26.9292 57.1293C26.817 56.2878 26.343 55.7576 25.4707 55.7689C24.5983 55.7801 24.0682 56.3018 24.0682 57.1713C24.0682 58.0409 24.6797 58.5738 25.5099 58.5738C26.3402 58.5738 26.8311 57.996 26.9292 57.1293Z" fill="#7B46BE"/>
<path d="M62.9956 10.2581C62.9304 11.3933 63.0575 12.5313 63.3714 13.6241C63.8735 15.5455 63.6519 17.3238 61.9156 18.9535C60.3505 20.4149 59.3659 22.4906 57.854 24.0922C57.7699 24.1782 57.707 24.2827 57.6704 24.3973C57.6339 24.5119 57.6246 24.6335 57.6434 24.7524C57.6622 24.8712 57.7086 24.984 57.7787 25.0817C57.8489 25.1794 57.941 25.2594 58.0476 25.3152C59.1331 25.8425 59.5062 26.8663 59.9297 27.8397C60.1075 28.2986 60.3845 28.7126 60.7409 29.052C61.0973 29.3915 61.5243 29.6479 61.9914 29.8032C63.2284 30.2211 64.4569 30.6755 65.708 31.0486C69.9463 32.3108 71.4806 34.4145 71.921 39.6037C71.9686 40.1647 71.9687 40.7257 71.9771 41.2867C72.0191 44.4984 71.4441 45.3258 68.3502 46.3665C65.2564 47.4071 62.0924 47.87 58.8807 48.1897C58.185 48.2598 57.4782 48.2991 56.791 48.3945C55.9613 48.5078 55.1193 48.3077 54.4292 47.8335C52.547 46.6554 50.2806 46.1505 49.9412 43.2109C49.7729 41.7832 48.3733 40.5041 47.5374 39.1521C47.2569 38.6809 46.8165 38.1872 47.2569 37.6234C47.6299 37.1325 47.9553 36.5519 48.8361 36.824C49.6467 37.0764 49.8599 36.0947 49.7673 35.7833C49.355 34.4089 49.9973 33.1214 49.9188 31.7975C49.8478 31.1012 49.7392 30.4092 49.5934 29.7246C49.5233 29.2898 49.01 28.8046 49.456 28.4455C49.8515 28.1258 50.3227 28.5998 50.7519 28.726C51.8991 29.0851 54.3983 28.3333 55.0912 27.3993C55.2987 27.1188 55.439 26.7878 55.2538 26.4877C55.0042 26.0894 54.6732 26.3839 54.4123 26.5129C53.1977 27.1385 51.8024 27.3191 50.4686 27.0234C49.4419 26.785 49.1362 26.1483 49.2007 25.1778C49.2456 24.5046 49.4812 24.1904 50.1656 24.4905C51.8907 25.2563 53.3549 24.6392 54.7461 23.649C56.3794 22.4692 57.7738 20.99 58.8554 19.2901C59.4164 18.4486 59.84 17.5623 60.7123 16.9003C61.6688 16.1738 61.422 13.8148 60.3813 13.1472C58.9847 12.2908 57.7789 11.1566 56.8386 9.81494C56.4768 9.27639 56.0841 9.25395 55.5287 9.49237C53.0183 10.6452 50.3956 10.7995 47.7169 10.2722C47.1839 10.1656 46.7295 10.1067 46.3565 10.6368C45.6104 11.6971 44.5473 12.3815 43.4225 12.9705C43.0589 13.1358 42.751 13.4028 42.536 13.7393C42.321 14.0758 42.208 14.4674 42.2107 14.8667C42.1939 15.3015 42.5193 16.157 41.7704 16.0756C41.0214 15.9943 39.9948 15.8737 39.8882 14.7601C39.8201 14.2959 39.8863 13.8219 40.079 13.3941C40.769 12.1851 40.7017 10.8949 40.7157 9.58494C40.7718 3.82634 44.4491 0.179877 50.2329 0.0564587C52.8416 0.00035928 55.3773 0.165852 57.596 1.76188C57.673 1.81423 57.7559 1.85753 57.8428 1.89091C62.3196 3.79548 63.0825 4.98479 62.9956 10.2581ZM69.6293 40.7958C69.6267 39.7803 69.5243 38.7675 69.3236 37.7721C68.8748 35.1691 67.4723 33.7273 64.8693 33.2084C64.5579 33.1439 64.1905 32.9279 63.9969 33.3234C63.9561 33.4099 63.9337 33.504 63.9313 33.5996C63.9288 33.6952 63.9464 33.7903 63.9829 33.8787C64.0193 33.9672 64.0738 34.0471 64.1429 34.1132C64.2119 34.1794 64.2941 34.2304 64.384 34.2631C67.1525 35.4019 67.3208 38.0694 67.9435 40.4087C68.0651 40.8631 68.0779 41.3398 67.981 41.8C67.8841 42.2603 67.6802 42.6913 67.3858 43.0581C67.0913 43.425 66.7147 43.7173 66.2862 43.9115C65.8578 44.1056 65.3897 44.1962 64.9198 44.1758C64.269 44.1309 63.6912 43.8953 63.5678 43.1828C63.5359 43.0431 63.5345 42.8981 63.5637 42.7578C63.5928 42.6175 63.6519 42.485 63.7368 42.3695C63.8217 42.2541 63.9304 42.1582 64.0557 42.0885C64.1809 42.0187 64.3197 41.9768 64.4626 41.9655C65.8791 41.7776 65.7865 40.9501 65.4583 39.9403C65.2255 39.2306 65.046 38.5014 64.8188 37.7917C64.5383 36.9502 64.0138 36.4201 63.0937 36.406C62.1232 36.3892 61.5117 36.9137 61.2228 37.8085C60.9339 38.7033 60.7039 39.6009 60.4234 40.4929C60.1794 41.2699 60.3308 41.7748 61.234 41.8785C62.0363 41.9711 62.6057 42.3526 62.4261 43.2474C62.2466 44.1421 61.5117 44.2291 60.774 44.1758C58.9648 44.044 57.6549 42.462 58.0756 40.65C58.6142 38.3246 58.819 35.7693 61.3042 34.4117C61.8175 34.1312 61.5594 33.6656 61.3883 33.2897C61.1976 32.8774 61.1078 32.308 60.6225 32.1677C60.0896 32.0275 59.9746 32.6025 59.7642 32.9307C58.3169 35.2224 56.8891 37.5252 55.453 39.8225C54.7125 41.0118 53.9243 42.1759 53.2371 43.396C52.2553 45.1379 52.8556 46.1505 54.8191 46.0888C58.9844 45.957 63.1134 45.4998 67.1329 44.3553C69.6377 43.6513 69.6882 43.5251 69.6293 40.7958V40.7958ZM60.5636 10.2946C60.6085 9.78409 60.6478 9.5092 60.6534 9.23432C60.7207 5.94689 60.2327 5.24565 57.1584 4.21342C57.0207 4.18576 56.8894 4.13247 56.7713 4.05634C54.5274 2.09287 51.8374 2.27519 49.1783 2.46873C45.4589 2.7352 42.8699 5.71127 43.0634 9.34651C43.0634 9.62701 42.9793 9.96361 43.2682 10.1095C43.6441 10.3002 43.8629 9.94958 44.076 9.72518C44.282 9.53323 44.4421 9.2974 44.5445 9.03516C44.9989 7.55694 45.947 7.48963 47.2933 7.80098C50.3788 8.51905 53.397 8.51344 56.0785 6.37605C56.9845 5.65237 57.6381 6.21898 58.0252 7.13339C58.5385 8.35075 59.2145 9.43347 60.5636 10.2946ZM57.4081 28.6335C56.676 29.1412 55.7784 29.5535 55.2005 30.2323C54.7517 30.7625 55.6662 31.0906 55.9186 31.5394C56.1218 31.8509 56.3568 32.1404 56.6199 32.4034C56.7769 32.5857 57.0154 32.782 57.2033 32.538C57.7643 31.8143 58.5244 31.1355 58.4319 30.1369C58.4157 29.8165 58.3116 29.5067 58.131 29.2415C57.9504 28.9763 57.7003 28.7659 57.4081 28.6335V28.6335Z" fill="#7B46BE"/>
<path d="M23.0023 28.2465C22.0779 30.127 21.8705 32.28 22.4189 34.3024C22.5254 34.7091 22.1776 35.0626 22.2365 35.3571C22.3571 35.9798 21.956 37.0933 23.4258 36.7596C24.416 36.5295 25.2098 37.8254 24.6909 38.7427C23.9756 39.9993 23.1958 41.2223 22.4104 42.4368C21.8719 43.2783 21.353 44.0805 21.4343 45.1408C21.4876 45.8196 21.0023 46.0945 20.4385 46.3161C19.2918 46.7219 18.2122 47.2967 17.2353 48.0215C17.0327 48.1809 16.8003 48.2983 16.5518 48.3667C16.3032 48.4351 16.0435 48.4532 15.7879 48.4198C11.7936 48.0327 7.77972 47.7382 3.94813 46.4115C3.15452 46.1352 2.38362 45.7976 1.64245 45.4017C0.523268 44.7958 0.00154388 43.8617 0.00154388 42.5378C-0.0199614 40.529 0.183259 38.524 0.607417 36.5604C1.25817 33.8087 2.89627 32.0304 5.60868 31.231C6.4137 30.9953 7.21031 30.7177 8.02375 30.5101C10.1611 29.9491 11.9507 29.0291 12.6295 26.7094C12.7012 26.46 12.8226 26.2279 12.9865 26.0268C13.1504 25.8258 13.3534 25.6601 13.5832 25.5397C14.7052 24.9563 14.464 24.1989 13.7347 23.5454C11.9142 21.9101 10.9101 19.6464 9.19343 17.9018C7.93961 16.6255 8.17803 14.7265 8.78671 13.1109C9.15174 12.2065 9.3228 11.2356 9.2888 10.261C9.20087 8.7174 9.43292 7.17227 9.9704 5.72258C11.2579 2.36784 13.8721 0.637175 17.2998 0.1996C20.3348 -0.184681 23.381 -0.170656 26.0878 1.68343C26.3259 1.82913 26.5851 1.937 26.8563 2.00319C29.8997 2.90639 31.3246 4.64267 31.5687 7.82911C31.6324 8.66924 31.6371 9.5128 31.5827 10.3536C31.5098 11.4307 31.5322 12.4405 31.967 13.4867C32.4831 14.7237 32.0904 15.2342 30.8702 15.4811C30.2279 15.6101 29.8352 15.4558 29.8156 14.7798C29.7875 13.8149 29.2265 13.2623 28.472 12.7967C27.2751 12.0532 26.2501 11.0636 25.465 9.89357C25.0864 9.33258 24.7105 9.1783 24.0626 9.47283C21.6614 10.5677 18.9671 10.8436 16.3938 10.2582C15.6701 10.1067 15.1736 10.2049 14.7108 10.8445C14.0572 11.7813 13.0587 12.3423 12.105 12.9257C10.3883 14.0028 10.2565 16.0841 11.8525 17.2959C12.2957 17.6325 12.4893 18.0785 12.7445 18.5188C14.147 20.9423 15.9674 22.9759 18.4723 24.3251C18.9631 24.5992 19.5088 24.7603 20.0698 24.7967C20.6307 24.8331 21.1927 24.7439 21.7148 24.5355C22.1552 24.3756 22.8368 23.6043 23.0864 24.3532C23.3361 25.1021 23.4651 26.1624 22.4104 26.6813C21.3926 27.1812 20.2296 27.3006 19.1314 27.0179C18.6378 26.8973 18.1693 26.6645 17.6813 26.5102C17.3699 26.412 16.9968 25.9492 16.7444 26.527C16.5761 26.9001 16.8061 27.2283 17.095 27.5116C17.7184 28.1051 18.4977 28.5091 19.342 28.6765C20.1863 28.8439 21.0608 28.7677 21.8635 28.4569C22.1608 28.3306 22.4189 28.0866 23.0023 28.2465ZM16.0824 46.1029C16.7023 46.1029 16.9828 46.1029 17.2633 46.1029C19.1006 46.1029 19.7878 45.1689 18.8509 43.5784C16.6855 39.932 14.3854 36.3528 12.119 32.7485C11.9002 32.4006 11.6534 32.1398 11.2579 32.5942C10.2453 33.7498 10.5651 36.2911 11.8469 37.1831C13.6561 38.4397 14.0909 40.7033 12.8343 42.4733C12.5404 42.8799 12.1685 43.224 11.7404 43.4856C11.3122 43.7472 10.8364 43.921 10.3404 43.997C9.84447 44.0729 9.33837 44.0495 8.85157 43.9281C8.36476 43.8066 7.90697 43.5895 7.50484 43.2895C5.82185 41.9768 5.37025 39.4215 6.94384 37.9797C8.34633 36.6754 8.26218 35.1158 8.53426 33.5591C8.59036 33.2421 8.71378 32.9224 8.14717 32.8999C6.40809 32.8326 3.67605 34.6418 3.05896 36.3416C2.47833 37.9461 2.47833 39.6318 2.32967 41.3064C2.18381 42.9137 2.82895 43.6878 4.29315 44.1478C8.24815 45.3932 12.3266 45.7831 16.0824 46.1029ZM29.0975 10.2582C29.6024 6.4659 28.9432 5.33269 25.7315 4.21351C25.5948 4.18241 25.4647 4.12733 25.3472 4.05082C23.1033 2.08734 20.4077 2.26686 17.7514 2.47162C14.0657 2.75212 11.5805 5.58233 11.6534 9.23721C11.6534 9.54575 11.5131 9.95528 11.875 10.1236C12.2368 10.2919 12.4612 9.93845 12.68 9.71405C12.8545 9.55992 12.9917 9.36807 13.0811 9.15306C13.558 7.52898 14.6042 7.50374 16.0404 7.83472C19.0389 8.52755 21.9729 8.50511 24.5675 6.43224C25.5296 5.66368 26.2028 6.17138 26.6263 7.16153C27.1396 8.36767 27.81 9.456 29.0975 10.2582V10.2582ZM14.5874 28.6897C14.2368 28.7065 14.1246 28.9169 13.9871 29.102C13.3336 29.9856 13.4261 30.8327 14.1302 31.6265C14.4387 31.9743 14.4555 32.6643 15.1624 32.5717C15.3616 32.5437 16.9828 30.4175 16.8959 30.3278C16.2367 29.5985 15.3616 29.1721 14.5874 28.6897ZM9.86942 41.7776C10.6829 41.6093 11.2382 41.1437 11.199 40.2686C11.1597 39.3934 10.5931 38.8997 9.72637 38.9362C8.85963 38.9727 8.32389 39.514 8.36316 40.3864C8.40242 41.2587 9.02232 41.6626 9.86942 41.7776Z" fill="#7B46BE"/>
<path d="M51.5906 22.6336C51.1123 22.6391 50.643 22.5035 50.2414 22.2437C49.6018 21.8314 48.5135 21.4892 48.766 20.6449C49.0184 19.8006 49.9665 20.471 50.606 20.5046C51.623 20.5964 52.648 20.5417 53.6494 20.3419C53.9972 20.2606 54.4572 20.14 54.6648 20.5214C54.9201 20.9843 54.5049 21.2984 54.1964 21.5593C53.4783 22.1595 52.6929 22.6476 51.5906 22.6336Z" fill="#7B46BE"/>
<path d="M20.2983 22.6309C19.7379 22.6533 19.1845 22.4993 18.7163 22.1905C18.116 21.7894 17.1006 21.4247 17.3391 20.6618C17.6196 19.8203 18.5368 20.4654 19.1707 20.5047C20.2333 20.5909 21.3026 20.5305 22.3487 20.3252C22.6825 20.255 23.1397 20.1456 23.2968 20.6225C23.4118 20.9759 23.1201 21.22 22.8789 21.4331C22.1384 22.0895 21.3474 22.6393 20.2983 22.6309Z" fill="#7B46BE"/>
<path d="M46.0423 14.5443C46.0423 13.5794 46.8838 12.6902 47.8262 12.7771C48.8248 12.8725 49.4643 13.4363 49.5092 14.4882C49.5253 14.9605 49.3553 15.4203 49.0359 15.7686C48.7164 16.1169 48.273 16.3259 47.801 16.3507C47.3316 16.3341 46.8867 16.137 46.5591 15.8004C46.2315 15.4639 46.0463 15.0139 46.0423 14.5443Z" fill="#7B46BE"/>
<path d="M16.3573 16.2916C16.1239 16.2926 15.8927 16.2461 15.6778 16.155C15.4629 16.064 15.2688 15.9301 15.1072 15.7617C14.9456 15.5933 14.8199 15.3938 14.7378 15.1753C14.6557 14.9568 14.6188 14.7239 14.6295 14.4908C14.6491 13.5399 15.513 12.6816 16.4555 12.7657C17.4793 12.8555 18.0543 13.4782 18.102 14.5076C18.1124 14.7413 18.0748 14.9747 17.9913 15.1933C17.9078 15.4118 17.7803 15.6109 17.6168 15.7782C17.4532 15.9454 17.257 16.0773 17.0403 16.1656C16.8237 16.2539 16.5912 16.2968 16.3573 16.2916V16.2916Z" fill="#7B46BE"/>
<path d="M25.9672 14.5693C25.9667 14.8038 25.9189 15.0358 25.8266 15.2514C25.7344 15.4669 25.5995 15.6617 25.4302 15.8239C25.2608 15.9861 25.0605 16.1124 24.8411 16.1953C24.6218 16.2782 24.388 16.316 24.1537 16.3063C23.9194 16.2967 23.6895 16.2399 23.4777 16.1392C23.2659 16.0386 23.0766 15.8962 22.9211 15.7207C22.7657 15.5451 22.6473 15.34 22.573 15.1176C22.4988 14.8951 22.4702 14.66 22.489 14.4263C22.5816 13.4025 23.179 12.7994 24.214 12.7629C24.4478 12.7662 24.6787 12.8156 24.8934 12.9082C25.108 13.0008 25.3024 13.1348 25.4652 13.3026C25.628 13.4704 25.7562 13.6686 25.8423 13.886C25.9284 14.1033 25.9709 14.3356 25.9672 14.5693Z" fill="#7B46BE"/>
<path d="M57.38 14.5861C57.3759 14.8204 57.3244 15.0514 57.2288 15.2653C57.1331 15.4792 56.9952 15.6716 56.8233 15.8309C56.6515 15.9902 56.4492 16.1131 56.2287 16.1922C56.0081 16.2714 55.7739 16.3052 55.5399 16.2915C55.3063 16.2816 55.0771 16.2241 54.8665 16.1224C54.6558 16.0208 54.4682 15.8772 54.3151 15.7004C54.1619 15.5236 54.0465 15.3174 53.976 15.0945C53.9054 14.8715 53.8811 14.6365 53.9046 14.4038C54.0112 13.3603 54.6788 12.8302 55.6718 12.7657C56.6142 12.7068 57.4165 13.6128 57.38 14.5861Z" fill="#7B46BE"/>
<path d="M35.8294 39.4689C34.8757 39.4436 33.995 38.8798 33.2264 38.1001C33.0357 37.9037 32.8589 37.6428 33.0301 37.3539C33.1131 37.2405 33.2312 37.1577 33.366 37.1181C33.5009 37.0786 33.645 37.0846 33.7762 37.1351C35.2279 37.4521 36.731 37.4521 38.1828 37.1351C38.4633 37.0706 38.8672 37.0258 39.0046 37.4353C39.1084 37.7382 38.8952 37.9682 38.6933 38.1562C37.9359 38.863 37.1197 39.4605 35.8294 39.4689Z" fill="#7B46BE"/>
<path d="M32.1437 33.1465C31.904 33.154 31.6653 33.1121 31.4425 33.0234C31.2197 32.9346 31.0175 32.801 30.8486 32.6307C30.6797 32.4605 30.5476 32.2573 30.4606 32.0338C30.3736 31.8103 30.3335 31.5713 30.3429 31.3317C30.385 30.2826 31.0189 29.7132 32.0259 29.6067C32.2593 29.5967 32.4923 29.6344 32.7107 29.7174C32.929 29.8004 33.1283 29.927 33.2962 30.0894C33.4641 30.2518 33.5973 30.4467 33.6875 30.6622C33.7777 30.8777 33.8232 31.1093 33.821 31.3429C33.7762 32.4537 33.1338 33.0203 32.1437 33.1465Z" fill="#7B46BE"/>
<path d="M41.6722 31.4158C41.6701 31.6498 41.6209 31.8809 41.5276 32.0954C41.4342 32.3099 41.2986 32.5034 41.1289 32.6644C40.9591 32.8254 40.7587 32.9505 40.5395 33.0323C40.3203 33.1141 40.0869 33.1509 39.8532 33.1406C39.6195 33.1302 39.3902 33.0728 39.1792 32.972C38.9681 32.8711 38.7795 32.7287 38.6246 32.5533C38.4698 32.378 38.3519 32.1732 38.2779 31.9513C38.2039 31.7293 38.1754 31.4947 38.194 31.2615C38.2922 30.2181 38.957 29.6823 39.9471 29.6038C40.8784 29.5197 41.6974 30.4285 41.6722 31.4158Z" fill="#7B46BE"/>
</svg>
