<svg width="65" height="64" viewBox="0 0 65 64" fill="none" xmlns="http://www.w3.org/2000/svg">
<path d="M49.6157 49.1962C49.6157 45.4656 49.6157 41.735 49.6157 38.0045C49.6157 37.4449 49.854 36.5696 48.8922 36.6041C48.1026 36.6414 48.2605 37.4449 48.2576 37.9844C48.2375 40.4724 48.2576 42.9575 48.2576 45.4455C48.2755 45.8758 48.2573 46.3068 48.2031 46.734C47.9935 47.9163 47.2182 48.4558 46.0611 48.3955C44.904 48.3353 44.2235 47.7011 44.212 46.5934C44.1719 42.8628 44.0943 39.1322 44.2637 35.4017C44.3671 33.1059 46.1903 31.608 48.5189 31.5879C52.4889 31.5553 56.4598 31.5553 60.4317 31.5879C62.9268 31.608 64.6812 33.3326 64.7128 35.8292C64.7558 39.3188 64.7128 42.8112 64.7128 46.3007C64.7128 47.5519 64.1529 48.3095 62.8608 48.3783C61.6147 48.4415 60.7878 47.836 60.7418 46.5676C60.6471 43.9418 60.6815 41.3132 60.604 38.6874C60.5839 37.9987 61.0002 36.8049 59.9924 36.7762C58.775 36.7447 59.2603 38.0073 59.2574 38.7075C59.2172 45.7813 59.2344 52.8579 59.2315 59.9431C59.2499 60.4228 59.2229 60.9032 59.1512 61.3779C59.0971 61.8128 58.8873 62.2134 58.5606 62.5057C58.2338 62.7979 57.8123 62.9621 57.3738 62.9677C56.3747 63.0223 55.5851 62.5803 55.3094 61.5587C55.181 61.0009 55.1212 60.4294 55.1314 59.857C55.1142 56.7492 55.1314 53.6413 55.1142 50.5334C55.1185 50.1043 55.1013 49.6752 55.0625 49.2478C55.0645 49.163 55.0491 49.0787 55.0172 49.0001C54.9853 48.9214 54.9376 48.8502 54.8771 48.7907C54.8165 48.7313 54.7444 48.6849 54.6651 48.6544C54.5859 48.624 54.5013 48.6101 54.4165 48.6136C54.3316 48.6154 54.248 48.6343 54.1706 48.6689C54.0931 48.7036 54.0234 48.7535 53.9656 48.8155C53.9078 48.8776 53.863 48.9506 53.8339 49.0303C53.8048 49.11 53.792 49.1947 53.7963 49.2794C53.7589 49.6582 53.7503 50.0427 53.7503 50.4273C53.7503 53.5361 53.7503 56.6439 53.7503 59.7508C53.7503 60.0837 53.7503 60.4195 53.7302 60.7524C53.6096 62.1728 52.7971 63.0481 51.6314 63.0137C50.4226 62.985 49.6645 62.1528 49.6531 60.6777C49.6243 56.8525 49.6531 53.0272 49.6531 49.1991L49.6157 49.1962Z" fill="#7B46BE"/>
<path d="M27.5386 49.1962V38.1508C27.5386 38.0074 27.5386 37.8639 27.5386 37.7204C27.4985 37.2038 27.5702 36.5438 26.7979 36.5897C26.149 36.6299 26.1863 37.2354 26.1863 37.706C26.1863 40.3347 26.1863 42.9661 26.1863 45.5976C26.1863 46.2204 26.2035 46.8517 25.8848 47.4141C25.391 48.275 24.5784 48.5104 23.6682 48.3669C23.2286 48.3197 22.8239 48.1054 22.538 47.7684C22.252 47.4313 22.1067 46.9973 22.1321 46.5561C22.0976 42.8772 22 39.1868 22.1895 35.5165C22.3101 33.0285 24.0932 31.5936 26.6285 31.5936C30.5046 31.5707 34.3808 31.5707 38.257 31.5936C40.8785 31.6109 42.5639 33.2982 42.6041 35.8981C42.65 39.3418 42.6835 42.7796 42.7046 46.2117C42.7046 47.5519 41.9896 48.3611 40.7722 48.4157C39.4629 48.4759 38.6963 47.7384 38.6791 46.2806C38.6446 43.6491 38.6791 41.0205 38.6475 38.389C38.6475 37.7491 38.9863 36.7045 37.8694 36.739C36.7525 36.7734 37.1458 37.8093 37.143 38.4608C37.1171 45.5862 37.143 52.7144 37.1257 59.8398C37.1257 60.2674 37.1401 60.7007 37.0999 61.1283C36.9937 62.2331 36.3591 62.9276 35.268 62.9821C34.1195 63.0424 33.2582 62.4541 33.1807 61.2603C33.0486 59.4036 33.0543 57.5297 33.0313 55.6731C33.0112 53.759 33.0313 51.8449 33.0313 49.9337C33.0313 49.3913 33.1577 48.5907 32.3336 48.6251C31.5096 48.6596 31.6761 49.4373 31.6732 49.9911C31.6732 53.2424 31.6732 56.4938 31.6732 59.748C31.6732 60.1784 31.6876 60.6089 31.6503 61.0393C31.5469 62.1872 30.9296 62.9477 29.7581 63.0022C28.5091 63.0625 27.7482 62.3135 27.6363 61.1197C27.5243 59.9259 27.5702 58.6374 27.5674 57.3891C27.5674 54.6629 27.5674 51.9367 27.5674 49.2106L27.5386 49.1962Z" fill="#7B46BE"/>
<path d="M15.0316 49.4802C15.0316 53.162 15.0316 56.8438 15.0316 60.5227C15.0316 62.1355 14.3367 62.9849 13.082 62.9878C11.8273 62.9906 11.1095 62.1068 11.1066 60.5313C11.1066 57.2341 11.1066 53.9311 11.1066 50.6367C11.1066 50.255 11.1066 49.8705 11.075 49.4888C11.0348 49.0325 10.874 48.5849 10.3457 48.5906C9.72838 48.5906 9.59918 49.0985 9.58482 49.6093C9.5676 50.3727 9.57047 51.1389 9.57047 51.9051C9.57047 54.7748 9.57047 57.6444 9.57047 60.5141C9.57047 62.1297 8.8785 62.9878 7.63812 63.0078C6.39774 63.0279 5.54785 62.1642 5.52201 60.6145C5.45884 56.5511 5.48755 52.4876 5.48181 48.4242C5.48181 44.9346 5.48181 41.4451 5.46171 37.9556C5.46171 37.4161 5.6024 36.6241 4.79271 36.604C3.98302 36.5839 4.11509 37.3788 4.10935 37.9183C4.09212 40.5957 4.10935 43.2731 4.10935 45.9534C4.095 47.6121 3.46045 48.3754 2.1569 48.4041C0.853357 48.4328 0.0896054 47.7154 0.0608929 46.0768C0.00921045 42.8283 -0.0453433 39.5741 0.0608929 36.3199C0.167129 33.0657 1.76641 31.5935 5.05399 31.5935C8.73876 31.5801 12.4216 31.5801 16.1026 31.5935C18.6867 31.5935 20.4755 33.0686 20.5961 35.6111C20.7655 39.1896 20.7023 42.7853 20.6535 46.3637C20.6334 47.724 19.8151 48.3955 18.5517 48.3897C17.2884 48.384 16.6079 47.6723 16.5878 46.2576C16.5505 43.5314 16.5878 40.8052 16.5562 38.0819C16.5562 37.5079 16.7285 36.6643 15.7752 36.6987C14.822 36.7331 15.0402 37.5596 15.0402 38.1335C15.0258 41.9244 15.0316 45.7037 15.0316 49.4802Z" fill="#7B46BE"/>
<path d="M59.2258 26.3479C59.2349 26.9808 59.118 27.6093 58.8817 28.1966C58.6455 28.784 58.2947 29.3185 57.8498 29.769C57.4049 30.2196 56.8748 30.5771 56.2902 30.8209C55.7057 31.0647 55.0785 31.1898 54.4452 31.189C53.1906 31.179 51.989 30.6823 51.0938 29.8037C50.1987 28.9251 49.68 27.7334 49.6473 26.4799C49.6014 23.8972 51.8438 21.6445 54.4653 21.6014C56.9977 21.5756 59.1999 23.7709 59.2258 26.3479Z" fill="#7B46BE"/>
<path d="M43.3306 10.9319C43.9512 10.9322 44.5657 11.0554 45.1384 11.2943C45.7112 11.5333 46.2309 11.8832 46.6676 12.324C47.1043 12.7647 47.4494 13.2875 47.6829 13.8623C47.9164 14.437 48.0336 15.0523 48.0279 15.6726C48.0345 16.3053 47.9144 16.933 47.6747 17.5187C47.435 18.1044 47.0806 18.6362 46.6322 19.083C46.1839 19.5298 45.6506 19.8825 45.0639 20.1203C44.4772 20.3581 43.8488 20.4762 43.2157 20.4678C40.689 20.4391 38.4638 18.2007 38.4609 15.6783C38.4681 15.0468 38.5997 14.423 38.8485 13.8425C39.0972 13.2619 39.4581 12.7362 39.9104 12.2953C40.3628 11.8544 40.8977 11.507 41.4846 11.273C42.0715 11.0391 42.6988 10.9231 43.3306 10.9319V10.9319Z" fill="#7B46BE"/>
<path d="M37.1344 26.4569C37.1375 27.0802 37.0167 27.6978 36.7791 28.2741C36.5416 28.8503 36.1919 29.3737 35.7504 29.8139C35.3089 30.2541 34.7844 30.6023 34.2073 30.8383C33.6301 31.0744 33.0118 31.1936 32.3882 31.189C31.1283 31.1679 29.9253 30.6606 29.0311 29.7733C28.1368 28.8859 27.6206 27.6873 27.5904 26.4282C27.6236 25.1456 28.1521 23.9256 29.0652 23.0237C29.9783 22.1219 31.2051 21.6081 32.4887 21.59C35.0442 21.6215 37.1488 23.8197 37.1344 26.4569Z" fill="#7B46BE"/>
<path d="M25.9452 15.6813C25.9602 16.304 25.85 16.9234 25.6213 17.5027C25.3926 18.0821 25.0499 18.6098 24.6135 19.0545C24.1772 19.4991 23.656 19.8518 23.0808 20.0917C22.5057 20.3315 21.8882 20.4536 21.2651 20.4507C19.9801 20.4327 18.7535 19.9116 17.8488 18.9994C16.9441 18.0872 16.4336 16.8566 16.427 15.5723C16.4624 14.3419 16.9715 13.1726 17.8482 12.3082C18.7249 11.4437 19.9016 10.9507 21.133 10.932C23.9353 10.9004 25.9366 12.8748 25.9452 15.6813Z" fill="#7B46BE"/>
<path d="M5.63686 26.4282C5.62519 25.1709 6.10895 23.9595 6.98362 23.0558C7.85828 22.1521 9.05359 21.6286 10.3113 21.5985C11.5684 21.6164 12.7701 22.1185 13.666 23C14.562 23.8815 15.083 25.0746 15.1206 26.3306C15.1582 26.9712 15.0654 27.6128 14.8476 28.2165C14.6298 28.8202 14.2916 29.3734 13.8536 29.8426C13.4156 30.3119 12.8868 30.6873 12.2993 30.9462C11.7118 31.2052 11.0778 31.3422 10.4358 31.349C9.79371 31.3558 9.15696 31.2322 8.5641 30.9858C7.97124 30.7394 7.4346 30.3753 6.98672 29.9154C6.53883 29.4556 6.18901 28.9097 5.95846 28.3107C5.72792 27.7118 5.62144 27.0723 5.64548 26.431L5.63686 26.4282Z" fill="#7B46BE"/>
<path d="M32.3308 0.314086C32.9661 0.306195 33.5966 0.42636 34.1845 0.667405C34.7723 0.90845 35.3055 1.26543 35.7523 1.71703C36.1991 2.16863 36.5502 2.70558 36.7847 3.29581C37.0192 3.88605 37.1322 4.51747 37.1171 5.15236C37.0999 7.64036 34.8891 9.83853 32.414 9.82705C31.133 9.81387 29.9075 9.30253 28.9973 8.40145C28.0872 7.50037 27.564 6.28041 27.5387 5.00026C27.51 2.45486 29.7237 0.296868 32.3308 0.314086Z" fill="#7B46BE"/>
</svg>
