<svg width="66" height="58" viewBox="0 0 66 58" fill="none" xmlns="http://www.w3.org/2000/svg">
<path d="M29.0352 27.4628C27.601 26.547 25.6887 26.861 24.653 28.1955L19.3412 35.0251C17.8008 36.8045 16.34 37.7989 15.1714 37.8512C14.5075 37.8774 13.8966 37.6419 13.3123 37.0924C12.4359 36.2812 11.9313 35.1036 11.9313 33.8476V22.2817C11.9313 21.7322 11.5594 21.235 11.0283 21.0518C10.4971 20.8948 9.88623 21.1042 9.56752 21.549L0.803097 34.2663C0.112567 35.2868 -0.153022 36.569 0.0860078 37.7727L3.80425 55.4094V56.7178C3.80425 57.4243 4.38854 58 5.10563 58H23.8827C24.5467 58 25.1045 57.5028 25.1841 56.8486L25.9278 48.7106C26.2996 44.7855 27.2292 40.9651 28.7165 37.4064C28.9555 36.8307 29.1945 36.255 29.4335 35.7055C29.9382 34.528 30.3897 33.4289 30.7349 32.4869C31.4255 30.6029 30.7349 28.5357 29.0352 27.4628ZM28.3181 31.5972C27.9994 32.4869 27.5213 33.5598 27.0432 34.7111C26.8042 35.2607 26.5652 35.8363 26.3262 36.4382C24.7326 40.2586 23.7499 44.3145 23.3516 48.5013L22.7142 55.4618H6.40702V55.3048C6.40702 55.2263 6.40702 55.1216 6.38046 55.0431L2.6091 37.2755C2.50286 36.7522 2.6091 36.1765 2.92781 35.7317L9.30193 26.4423V33.8476C9.30193 35.8102 10.1253 37.6942 11.5329 38.9764C12.6483 39.9969 13.9497 40.4679 15.3042 40.3894C17.243 40.2848 19.2615 39.0287 21.3331 36.6213L26.698 29.7655C26.9105 29.4777 27.3088 29.4254 27.601 29.6085C28.2915 30.0272 28.5837 30.8384 28.3181 31.5972Z" fill="#4B1A8A"/>
<path d="M57.2533 13.629C55.9506 13.629 54.701 13.9247 53.5578 14.4624V1.3172C53.5578 0.967742 53.4249 0.645162 53.1856 0.376345C52.9464 0.134409 52.6007 0 52.2551 0H36.7556C36.2505 0 35.7719 0.322581 35.5592 0.77957C35.3465 1.26344 35.4529 1.82796 35.7985 2.2043C36.8619 3.36022 37.4468 4.83871 37.4468 6.42473C37.4468 9.83871 34.7085 12.6075 31.3321 12.6075C27.9557 12.6075 25.2174 9.83871 25.2174 6.42473C25.2174 4.86559 25.8022 3.36022 26.8657 2.2043C27.2113 1.82796 27.3176 1.26344 27.1049 0.77957C26.8923 0.295699 26.4403 0 25.9086 0H10.3027C9.95709 0 9.63806 0.134409 9.3722 0.376345C9.10634 0.61828 9 0.967742 9 1.3172V16.8548C9 17.5806 9.58489 18.172 10.3027 18.172C11.0205 18.172 11.6054 17.5806 11.6054 16.8548V2.60753H23.4893C22.931 3.79032 22.6385 5.08065 22.6385 6.39785C22.6385 11.2634 26.5466 15.1882 31.3587 15.1882C36.1707 15.1882 40.0522 11.2366 40.0522 6.37097C40.0522 5.02688 39.7598 3.73656 39.2015 2.58065H50.979V16.828C50.979 17.3387 51.2715 17.8226 51.75 18.0376C52.2285 18.2527 52.7603 18.1452 53.159 17.7957C54.2756 16.7473 55.7379 16.1828 57.2798 16.1828C60.6562 16.1828 63.3946 18.9516 63.3946 22.3656C63.3946 24.0054 62.7565 25.5645 61.6133 26.7473C60.4701 27.9032 58.9282 28.5484 57.2798 28.5484C55.7645 28.5484 54.3022 27.9839 53.159 26.9355C52.7868 26.586 52.2285 26.5054 51.75 26.6936C51.2715 26.9086 50.979 27.3656 50.979 27.9032V42.3656H30.6409C29.923 42.3656 29.3382 42.957 29.3382 43.6828C29.3382 44.4086 29.923 45 30.6409 45H52.2817C52.6273 45 52.9464 44.8656 53.2122 44.6237C53.4515 44.3817 53.5844 44.0323 53.5844 43.6828V30.3495C54.7276 30.8871 55.9771 31.1828 57.2798 31.1828C59.5928 31.1828 61.7994 30.2688 63.4478 28.6022C65.0961 26.9355 66 24.7312 66 22.3656C65.9734 17.5806 62.0653 13.629 57.2533 13.629Z" fill="#4B1A8A"/>
</svg>
