<svg width="58" height="74" viewBox="0 0 58 74" fill="none" xmlns="http://www.w3.org/2000/svg">
<path d="M3.42188 73.2761H53.6094C55.496 73.2761 57.0312 71.7408 57.0312 69.8542V3.698C57.0312 1.8114 55.496 0.276123 53.6094 0.276123H3.42188C1.53528 0.276123 0 1.8114 0 3.698V69.8542C0 71.7408 1.53528 73.2761 3.42188 73.2761ZM2.28125 3.698C2.28125 3.39549 2.40142 3.10536 2.61533 2.89145C2.82924 2.67755 3.11936 2.55737 3.42188 2.55737H53.6094C53.9119 2.55737 54.202 2.67755 54.4159 2.89145C54.6298 3.10536 54.75 3.39549 54.75 3.698V69.8542C54.75 70.1568 54.6298 70.4469 54.4159 70.6608C54.202 70.8747 53.9119 70.9949 53.6094 70.9949H3.42188C3.11936 70.9949 2.82924 70.8747 2.61533 70.6608C2.40142 70.4469 2.28125 70.1568 2.28125 69.8542V3.698Z" fill="white"/>
<path d="M7.98438 61.8699H49.0469C49.3494 61.8699 49.6395 61.7497 49.8534 61.5358C50.0673 61.3219 50.1875 61.0318 50.1875 60.7292V8.2605C50.1875 7.95799 50.0673 7.66786 49.8534 7.45395C49.6395 7.24005 49.3494 7.11987 49.0469 7.11987H7.98438C7.68186 7.11987 7.39174 7.24005 7.17783 7.45395C6.96392 7.66786 6.84375 7.95799 6.84375 8.2605V60.7292C6.84375 61.0318 6.96392 61.3219 7.17783 61.5358C7.39174 61.7497 7.68186 61.8699 7.98438 61.8699ZM9.125 9.40112H47.9062V59.5886H9.125V9.40112Z" fill="white"/>
<path d="M29.6562 68.7136C30.9161 68.7136 31.9375 67.6923 31.9375 66.4324C31.9375 65.1725 30.9161 64.1511 29.6562 64.1511C28.3964 64.1511 27.375 65.1725 27.375 66.4324C27.375 67.6923 28.3964 68.7136 29.6562 68.7136Z" fill="white"/>
</svg>
