<svg width="47" height="49" viewBox="0 0 47 49" fill="none" xmlns="http://www.w3.org/2000/svg">
<path d="M30.7919 26.8199L38.9392 31.7501M38.9273 18.1486L30.7919 23.0788M45.5955 16.278C45.5955 18.3305 43.9933 19.9943 42.0168 19.9943C40.0404 19.9943 38.4382 18.3305 38.4382 16.278C38.4382 14.2256 40.0404 12.5618 42.0168 12.5618C43.9933 12.5618 45.5955 14.2256 45.5955 16.278ZM31.2809 24.9494C31.2809 27.0018 29.6787 28.6656 27.7023 28.6656C25.7259 28.6656 24.1237 27.0018 24.1237 24.9494C24.1237 22.8969 25.7259 21.2331 27.7023 21.2331C29.6787 21.2331 31.2809 22.8969 31.2809 24.9494ZM45.5955 33.6207C45.5955 35.6731 43.9933 37.3369 42.0168 37.3369C40.0404 37.3369 38.4382 35.6731 38.4382 33.6207C38.4382 31.5682 40.0404 29.9044 42.0168 29.9044C43.9933 29.9044 45.5955 31.5682 45.5955 33.6207Z" stroke="#3DBFAB" stroke-width="1.5" stroke-linecap="round" stroke-linejoin="round"/>
<path d="M17.5168 37.9976H17.5404M34.0336 11.7359V5.6247C34.0336 3.07055 31.9208 1 29.3145 1H5.71908C3.1128 1 1 3.07055 1 5.6247V42.6223C1 45.1765 3.1128 47.247 5.71908 47.247H29.3145C31.9208 47.247 34.0336 45.1765 34.0336 42.6223V38.1628" stroke="white" stroke-width="2" stroke-linecap="round" stroke-linejoin="round"/>
</svg>
