<svg width="53" height="53" viewBox="0 0 53 53" fill="none" xmlns="http://www.w3.org/2000/svg">
<path d="M45.3472 8.07486C42.9378 5.65988 40.0702 3.74527 36.911 2.44221C33.7518 1.13916 30.364 0.473623 26.9441 0.484256C12.6095 0.484256 0.942375 12.0938 0.942375 26.3674C0.942375 30.9283 2.14321 35.388 4.41693 39.3057L0.72583 52.7207L14.5158 49.1196C18.3282 51.186 22.5996 52.2702 26.9409 52.2734H26.9507C41.2853 52.2734 52.9623 40.6639 52.9623 26.3903C52.971 22.9885 52.3022 19.6187 50.9946 16.4756C49.687 13.3325 47.7664 10.4784 45.3439 8.07813L45.3472 8.07486ZM26.9507 47.9051C23.0764 47.9058 19.2732 46.8695 15.9397 44.9048L15.149 44.4347L6.96625 46.5666L9.15139 38.6299L8.63955 37.8137C6.46675 34.3882 5.31852 30.4182 5.32904 26.3674C5.336 20.6609 7.61791 15.1902 11.674 11.156C15.7301 7.12174 21.229 4.85358 26.9638 4.84926C32.7351 4.84926 38.1716 7.09543 42.2499 11.1535C44.2625 13.1489 45.8577 15.5214 46.9435 18.1338C48.0292 20.7463 48.584 23.5469 48.5756 26.3739C48.5658 38.2479 38.8672 47.9019 26.9507 47.9019V47.9051ZM38.8049 31.7869C38.1585 31.4605 34.9596 29.8999 34.3657 29.6844C33.7719 29.469 33.3388 29.3579 32.8991 30.0109C32.4693 30.6541 31.2193 32.1134 30.8387 32.5509C30.4581 32.9786 30.0808 33.0406 29.4344 32.7141C28.7881 32.3877 26.6849 31.7053 24.2045 29.5016C22.2753 27.7876 20.9662 25.6655 20.5856 25.0223C20.205 24.3792 20.5429 24.0233 20.8743 23.7066C21.1729 23.4193 21.5207 22.9525 21.8488 22.5737C22.1769 22.195 22.2786 21.9306 22.4951 21.4931C22.7117 21.0654 22.6067 20.6867 22.4426 20.3602C22.2786 20.0337 20.976 16.8506 20.4445 15.5545C19.9228 14.2877 19.3782 14.464 18.9779 14.4412C18.5973 14.4216 18.1675 14.4216 17.7377 14.4216C17.3079 14.4216 16.5992 14.5848 16.0054 15.228C15.4115 15.8712 13.7284 17.4415 13.7284 20.6247C13.7284 23.8078 16.0546 26.88 16.3827 27.3175C16.7108 27.7451 20.9662 34.2845 27.4855 37.0824C29.0341 37.7452 30.2448 38.1435 31.1864 38.4504C32.7449 38.9401 34.159 38.8682 35.2778 38.705C36.5279 38.5222 39.1231 37.1444 39.6678 35.6328C40.2124 34.1213 40.2124 32.8284 40.0484 32.5607C39.8942 32.2734 39.4644 32.1134 38.8082 31.7837L38.8049 31.7869Z" fill="#E9E9E9"/>
</svg>
