<svg width="25" height="26" viewBox="0 0 25 26" fill="none" xmlns="http://www.w3.org/2000/svg">
<path d="M20.9333 4.44485C19.8049 3.31377 18.4618 2.41704 16.9822 1.80674C15.5025 1.19644 13.9158 0.884727 12.3141 0.889707C5.60029 0.889707 0.135845 6.32717 0.135845 13.0124C0.135845 15.1485 0.698271 17.2373 1.76319 19.0722L0.0344238 25.3552L6.4931 23.6686C8.27867 24.6365 10.2792 25.1442 12.3125 25.1457H12.3171C19.0309 25.1457 24.5 19.7083 24.5 13.0231C24.504 11.4298 24.1908 9.85154 23.5784 8.37944C22.9659 6.90733 22.0664 5.57057 20.9318 4.44638L20.9333 4.44485ZM12.3171 23.0998C10.5026 23.1001 8.72129 22.6148 7.16003 21.6946L6.78968 21.4744L2.9572 22.4729L3.98063 18.7557L3.7409 18.3734C2.72325 16.769 2.18546 14.9096 2.19039 13.0124C2.19365 10.3396 3.26241 7.77739 5.16212 5.88792C7.06183 3.99845 9.63729 2.93613 12.3233 2.93411C15.0263 2.93411 17.5726 3.98612 19.4827 5.88679C20.4253 6.82135 21.1725 7.93252 21.681 9.15609C22.1895 10.3797 22.4493 11.6914 22.4454 13.0154C22.4408 18.5767 17.8984 23.0983 12.3171 23.0983V23.0998ZM17.8692 15.5507C17.5664 15.3978 16.0682 14.6669 15.79 14.5659C15.5119 14.465 15.3091 14.413 15.1031 14.7188C14.9018 15.0201 14.3164 15.7036 14.1381 15.9085C13.9598 16.1088 13.7831 16.1378 13.4804 15.9849C13.1777 15.832 12.1927 15.5124 11.0309 14.4803C10.1274 13.6775 9.51422 12.6836 9.33597 12.3824C9.15771 12.0812 9.31599 11.9145 9.4712 11.7662C9.61104 11.6316 9.77392 11.4129 9.92759 11.2356C10.0813 11.0582 10.1289 10.9343 10.2303 10.7294C10.3317 10.5291 10.2826 10.3517 10.2057 10.1988C10.1289 10.0459 9.51883 8.55506 9.26989 7.94801C9.02556 7.35472 8.77047 7.43729 8.58299 7.42659C8.40474 7.41741 8.20343 7.41741 8.00213 7.41741C7.80082 7.41741 7.4689 7.49387 7.19076 7.7951C6.91262 8.09633 6.1243 8.83183 6.1243 10.3227C6.1243 11.8136 7.21381 13.2524 7.36748 13.4573C7.52115 13.6576 9.51422 16.7204 12.5676 18.0309C13.2929 18.3413 13.86 18.5278 14.301 18.6716C15.0309 18.9009 15.6932 18.8673 16.2172 18.7908C16.8027 18.7052 18.0182 18.0599 18.2733 17.3519C18.5284 16.644 18.5284 16.0384 18.4516 15.9131C18.3794 15.7785 18.178 15.7036 17.8707 15.5491L17.8692 15.5507Z" fill="#27AE60"/>
</svg>
